<?xml version="1.0" standalone="no"?>
<!DOCTYPE svg PUBLIC "-//W3C//DTD SVG 1.1//EN" "http://www.w3.org/Graphics/SVG/1.1/DTD/svg11.dtd">
<svg xmlns="http://www.w3.org/2000/svg">
<defs >
<font id="KiwiMaru" horiz-adv-x="968" ><font-face
    font-family="Kiwi Maru Light"
    units-per-em="1000"
    panose-1="0 0 5 0 0 0 0 0 0 0"
    ascent="1160"
    descent="-288"
    alphabetic="0" />
<glyph unicode=" " glyph-name="space" horiz-adv-x="250" />
<glyph unicode="!" glyph-name="exclam" horiz-adv-x="266" d="M133 164Q123 164 116 171T107 189L95 695Q95 711 106 722T133 733Q149 733 160 722T170 695L158 189Q158 179 151 172T133 164ZM133 -13Q111 -13 96 3T80 41Q80 63 95 78T133 94Q155 94 170 79T186
41Q186 19 171 3T133 -13Z" />
<glyph unicode="&quot;" glyph-name="quotedbl" horiz-adv-x="376" d="M264 560Q254 560 248 566T241 583Q240 628 235 674T227 757Q226 774 237 785T264 797Q281 797 292 786T302 757Q299 721 295 675T288 582Q288 573 282 567T264 560ZM112 560Q102 560 96 566T88
583Q87 628 82 674T74 757Q73 773 84 785T112 797Q129 797 140 786T149 757Q146 721 142 675T136 582Q134 560 112 560Z" />
<glyph unicode="#" glyph-name="numbersign" horiz-adv-x="576" d="M137 -13Q125 -13 118 -4T111 16L141 196V198Q141 206 133 206H58Q48 206 41 213T34 230Q34 240 41 247T58 254H143Q151 254 152 262L183 449V451Q183 459 175 459H96Q87 459 80 466T73 483Q73
493 80 500T96 507H185Q193 507 194 515L226 702Q228 711 235 717T251 724Q264 724 271 716T277 695L248 517V515Q248 507 256 507H359Q367 507 368 515L399 702Q401 711 408 717T424 724Q438 724 445 715T451 695L421 517V515Q421 507 429 507H512Q522 507 529
500T536 483Q536 473 529 466T512 459H419Q411 459 410 451L379 264V262Q379 254 387 254H473Q484 254 490 247T497 230Q497 220 491 213T473 206H377Q369 206 368 198L336 9Q335 -1 327 -7T310 -13Q298 -13 291 -4T285 16L315 196V198Q315 206 307 206H204Q196
206 195 198L163 9Q162 -1 154 -7T137 -13ZM214 254H317Q325 254 326 262L357 449V451Q357 459 349 459H246Q238 459 237 451L206 264V262Q206 254 214 254Z" />
<glyph unicode="$" glyph-name="dollar" horiz-adv-x="553" d="M281 -40Q272 -40 266 -34T260 -19V14Q260 23 251 24Q208 28 167 45T93 95Q60 130 60 159Q60 172 66 182Q80 206 107 206Q127 206 140 192T153 160Q153 148 149 140Q146 132 150 127Q170 108 196
97T251 83H253Q260 83 260 91V326Q260 334 253 337Q212 351 176 370T116 419T93 497Q93 551 115 586T174 642T252 668Q260 670 260 677V733Q260 741 266 747T281 754Q290 754 296 748T302 733V679Q302 671 311 669Q372 664 422 637Q480 606 480 564Q480 544 467
530T433 515Q414 515 401 528T387 560Q387 564 387 567T389 574Q389 576 389 577T390 579Q390 583 386 586Q373 597 354 603T311 612H309Q302 612 302 604V386Q302 378 308 376Q353 361 395 342T464 291T491 202Q491 150 466 113T400 53T311 25Q302 24 302 15V-19Q302
-27 296 -33T281 -40ZM250 396Q251 395 254 395Q260 395 260 403V601Q260 612 252 610Q214 603 184 577T154 499Q154 458 182 435T250 396ZM311 84Q358 92 394 120T430 202Q430 233 414 253T371 288T312 315Q311 316 308 316Q302 316 302 308V93Q302 83 311 84Z"
/>
<glyph unicode="%" glyph-name="percent" horiz-adv-x="734" d="M160 386Q120 386 87 408T34 469T14 555Q14 602 34 640T87 702T160 725Q200 725 233 703T285 642T305 555Q305 508 286 470T233 409T160 386ZM72 12Q64 18 64 29Q64 37 70 44L630 698Q636 707 647
707Q656 707 662 701Q670 695 670 684Q670 677 664 669L104 15Q98 6 87 6Q78 6 72 12ZM160 432Q188 432 210 449T245 494T259 555Q259 589 246 617T210 662T160 679Q133 679 110 662T74 617T60 555Q60 504 89 468T160 432ZM574 -12Q534 -12 501 10T449 72T429 158Q429
206 448 244T501 305T574 328Q614 328 647 305T700 244T720 158Q720 111 700 73T647 11T574 -12ZM574 34Q602 34 624 51T660 96T674 158Q674 209 645 245T574 281Q547 281 525 264T489 220T475 158Q475 124 488 96T524 51T574 34Z" />
<glyph unicode="&amp;" glyph-name="ampersand" horiz-adv-x="654" d="M237 -11Q181 -11 136 13T66 78T40 168Q40 194 47 216Q63 275 99 309T178 366Q187 370 180 379Q158 405 137 442T119 526Q124 569 147 596T203 635T264 648Q292 648 324 635T380 594T404 517Q404
476 387 448T341 400T277 363Q269 358 275 350L413 194Q420 185 425 195L481 291Q483 295 483 297Q483 301 477 301Q465 301 453 300T429 297Q417 296 408 305T398 327Q398 340 407 349T429 356Q455 354 475 353T514 352Q533 352 553 353T599 356Q611 358 620 349T630
327Q630 314 621 305T599 297Q589 299 577 300T553 302Q545 302 542 296L460 148Q457 141 461 135L486 107Q504 88 516 75T543 54T587 47Q592 47 598 47T612 48Q625 48 634 39T644 17Q644 4 634 -4T607 -11H603Q574 -10 555 -7T519 6T484 34T434 84Q428 92 421
84Q407 63 383 41T322 4T237 -11ZM242 397Q272 412 297 427T338 465T353 518Q353 551 336 568T298 592T264 599Q250 599 227 592T187 566T169 512Q169 486 185 460T230 400Q235 394 242 397ZM222 41Q288 41 326 67T389 132Q393 138 388 145Q364 172 333 207T273
275T226 328Q221 334 214 330Q171 307 136 275T93 187Q92 183 92 180T92 172Q92 144 105 114T146 62T222 41Z" />
<glyph unicode="&apos;" glyph-name="quotesingle" horiz-adv-x="223" d="M111 560Q101 560 95 566T88 583Q87 628 82 674T74 757Q73 774 84 785T111 797Q128 797 139 786T149 757Q146 721 142 675T135 582Q135 573 129 567T111 560Z" />
<glyph unicode="(" glyph-name="parenleft" horiz-adv-x="362" d="M322 -109Q238 -57 182 17T98 179T70 357Q70 448 98 535T182 696T322 823Q326 825 328 825Q334 825 337 821T337 813Q237 723 186 603T135 357Q135 231 186 111T337 -99Q339 -101 339 -103Q339
-107 333 -109T322 -109Z" />
<glyph unicode=")" glyph-name="parenright" horiz-adv-x="362" d="M40 -109Q36 -111 34 -111Q28 -111 25 -108T25 -101Q126 -10 176 110T227 357Q227 483 177 603T25 813Q23 815 23 817Q23 822 29 824T40 823Q124 771 180 697T264 535T292 357Q292 267 264 180T180
18T40 -109Z" />
<glyph unicode="*" glyph-name="asterisk" horiz-adv-x="434" d="M217 387Q202 387 193 398T185 425L205 546Q206 551 204 552T198 550L104 472Q94 464 83 464Q63 464 54 481Q50 488 50 497Q50 520 71 528L186 571Q190 573 190 575T186 579L71 622Q61 625 56 633T50
652Q50 669 59 677T82 686Q95 686 104 677L198 600Q201 597 203 598T205 604L185 725Q183 740 192 751T217 763Q232 763 241 752T249 725L229 603Q228 599 230 598T236 599L331 677Q339 685 352 685Q371 685 380 669Q384 662 384 652Q384 642 379 634T363 622L248
579Q244 578 244 576T248 571L363 528Q384 520 384 497Q384 481 374 473T352 464Q341 464 331 472L236 551Q233 554 231 553T229 547L249 425Q251 410 242 399T217 387Z" />
<glyph unicode="+" glyph-name="plus" horiz-adv-x="606" d="M303 104Q292 104 284 112T276 130V321Q276 330 267 330H77Q66 330 58 338T50 357Q50 368 58 375T77 383H267Q276 383 276 392V583Q276 594 284 602T303 610Q314 610 322 602T330 583V392Q330 383 339
383H529Q540 383 548 376T556 357Q556 346 548 338T529 330H339Q330 330 330 321V130Q330 120 322 112T303 104Z" />
<glyph unicode="," glyph-name="comma" horiz-adv-x="189" d="M30 -170Q28 -171 24 -171Q20 -171 16 -167T12 -159Q12 -153 18 -149Q56 -123 77 -93T98 -40Q98 -26 90 -17T65 -5Q40 -1 28 16T16 52Q16 74 31 92T74 110Q106 110 125 81T144 10Q144 -36 118 -86T30 -170Z" />
<glyph unicode="-" glyph-name="hyphen" horiz-adv-x="406" d="M111 325Q95 325 88 335T80 357Q80 369 87 379T111 389H294Q310 389 318 379T326 357Q326 345 318 335T294 325H111Z" />
<glyph unicode="." glyph-name="period" horiz-adv-x="194" d="M73 -59Q48 -59 30 -41T12 2Q12 28 30 45T73 63Q99 63 116 46T134 2Q134 -23 117 -41T73 -59Z" />
<glyph unicode="/" glyph-name="slash" horiz-adv-x="355" d="M34 -39Q25 -39 20 -33T14 -19Q14 -14 15 -11L301 739Q306 752 320 752Q330 752 335 746T341 732Q341 727 340 724L53 -26Q52 -32 46 -35T34 -39Z" />
<glyph unicode="0" glyph-name="zero" horiz-adv-x="671" d="M335 -12Q202 -12 128 86T54 363Q54 476 87 557T184 681T335 725Q423 725 486 682T583 558T617 363Q617 185 543 87T335 -12ZM335 48Q401 48 449 86T524 195T550 361Q550 453 524 521T449 626T335 664Q270
664 222 627T147 521T121 361Q121 265 147 195T221 86T335 48Z" />
<glyph unicode="1" glyph-name="one" horiz-adv-x="471" d="M109 -12Q95 -13 85 -4T74 21Q74 36 84 46T109 54Q157 50 207 48Q216 48 216 57V618Q216 631 205 625L118 582Q111 579 104 579Q84 579 73 598Q70 604 70 611Q70 633 90 642L237 713Q245 716 251 716Q263
716 272 707T282 684V57Q282 48 292 48Q342 50 385 54Q399 56 409 46T419 21Q419 6 409 -3T385 -12Q352 -9 316 -7T244 -5Q208 -5 174 -7T109 -12Z" />
<glyph unicode="2" glyph-name="two" horiz-adv-x="635" d="M97 -3Q75 -3 59 13T45 50Q54 124 88 176T180 268T314 342Q376 370 416 393T475 448T489 535Q479 597 436 630T320 663Q251 663 210 638T149 564Q149 563 149 563T148 560Q148 557 155 553Q171 546 178
533T185 505Q185 484 171 467T131 450Q103 450 88 470T73 522Q73 558 92 597Q126 660 187 691T316 723Q370 723 419 704T503 645T551 546Q554 527 554 510Q554 459 532 424T474 362T394 315T304 272T218 223T150 160T113 70V68Q113 60 122 60H501Q509 60 509 67Q509
87 507 104T505 138Q505 152 515 162T540 172Q556 172 566 161T575 135L569 51Q568 29 552 13T513 -3H97Z" />
<glyph unicode="3" glyph-name="three" horiz-adv-x="594" d="M289 -11Q196 -11 133 32T50 150Q45 172 45 187Q45 221 61 242T106 264Q134 264 147 246T161 205Q161 184 150 172T123 156Q113 154 116 146Q148 46 289 46Q316 46 348 54T410 80T458 123T477 184Q477
207 472 231T447 277T386 314T271 332Q260 333 252 341T244 360Q244 371 252 379T272 388Q467 399 467 528Q467 560 448 592T390 646T298 668Q231 668 191 643T130 571Q129 569 129 567Q129 562 134 559Q151 551 158 537T166 509Q166 489 153 473T113 456Q86 456
70 476T53 527Q53 535 54 544T58 562Q79 636 143 680T298 724Q378 724 429 694T506 619T531 528Q531 467 492 426T397 366Q384 362 396 359Q458 342 499 303T540 189Q540 132 508 87T418 16T289 -11Z" />
<glyph unicode="4" glyph-name="four" horiz-adv-x="580" d="M258 -17Q244 -18 234 -9T223 16Q223 31 233 41T258 49Q277 47 298 46T341 43Q350 43 350 52V196Q350 205 341 205H48Q33 205 25 216T16 241Q16 255 23 265L314 692Q321 703 332 709T357 715Q380 715
395 699T410 663V271Q410 262 419 262H531Q544 262 552 254T560 234Q560 221 552 213T531 205H419Q410 205 410 196V52Q410 43 419 43Q440 44 461 45T502 49Q516 51 526 41T537 16Q537 1 527 -8T502 -17Q470 -14 440 -12T380 -10Q351 -10 321 -12T258 -17ZM106
262H341Q350 262 350 271V620Q350 626 347 628T339 624L100 273Q98 269 98 268Q98 262 106 262Z" />
<glyph unicode="5" glyph-name="five" horiz-adv-x="609" d="M289 -12Q148 -12 78 72Q46 109 46 141Q46 156 53 169Q69 197 102 197Q127 197 141 181T156 143Q156 124 144 106Q138 99 145 93Q202 48 289 48Q346 48 391 68T464 124T493 204Q495 285 441 327T280
369Q237 369 200 361T124 339Q116 337 113 337Q100 337 90 347T81 372L104 659Q106 682 122 697T162 713H472Q486 713 495 704T504 681Q504 668 495 659T472 650H176Q166 650 166 641L148 413Q148 402 158 405Q201 416 238 421T309 426Q396 426 450 396T529 316T555
211Q555 174 539 135T489 62T405 9T289 -12Z" />
<glyph unicode="6" glyph-name="six" horiz-adv-x="610" d="M322 -11Q193 -11 125 73T57 318Q57 512 130 618T336 724Q398 724 440 705T505 656T527 597Q527 571 512 554T475 537Q453 537 440 552T426 586Q426 604 437 618Q443 624 437 630Q406 663 338 663Q269
663 219 619T143 496T119 316Q119 312 122 312Q130 312 141 328Q165 364 197 386T262 420T319 433Q391 436 446 408T531 328T562 206Q562 146 530 97T443 19T322 -11ZM322 49Q379 49 418 73T478 133T499 206Q499 258 483 291T441 344T386 370T329 378Q275 378 231
350T161 278T135 181Q135 178 137 174Q158 110 203 80T322 49Z" />
<glyph unicode="7" glyph-name="seven" horiz-adv-x="570" d="M169 -8Q151 1 151 22Q151 30 154 36L462 637Q463 639 463 642Q463 648 455 648H100Q91 648 91 639Q93 613 95 587T98 540Q100 526 89 515T63 503Q48 503 38 514T28 540Q30 566 32 597T35 659Q37 682
52 697T90 713H487Q519 713 532 685Q538 672 538 657Q538 642 531 629L214 7Q205 -12 184 -12Q180 -12 177 -11T169 -8Z" />
<glyph unicode="8" glyph-name="eight" horiz-adv-x="656" d="M328 -13Q246 -13 183 14T85 89T50 200Q50 246 70 282T124 343T193 382Q204 385 193 390Q150 406 121 448T91 538Q91 594 121 636T204 702T328 726Q398 726 451 702T535 636T565 538Q565 486 531 446T451
389Q441 385 451 382Q485 372 521 348T581 287T606 200Q606 137 571 89T474 14T328 -13ZM328 408Q376 408 415 425T477 472T500 537Q500 576 478 606T417 653T328 670Q281 670 242 652T179 604T156 537Q156 480 204 444T328 408ZM328 41Q425 41 483 84T541 200Q541
245 514 280T438 335T328 355Q269 355 220 334T143 278T114 200Q114 125 170 83T328 41Z" />
<glyph unicode="9" glyph-name="nine" horiz-adv-x="610" d="M269 -10Q208 -10 167 9T104 58T83 115Q83 141 98 158T133 176Q156 176 170 161T184 126Q184 107 173 95Q167 89 172 82Q200 48 272 48Q342 48 394 95T474 222Q486 259 491 293T496 368Q496 378 496
388T495 409Q495 413 493 413Q489 413 483 408T472 394Q447 355 414 330T348 294T291 280Q220 278 165 304T79 381T48 496Q48 564 78 615T163 695T288 724Q415 724 484 639T553 395Q553 310 536 237T484 108T396 21T269 -10ZM287 337Q339 340 381 368T449 440T475
532Q475 535 473 539Q427 666 294 666Q211 666 160 622T108 503Q108 448 125 414T170 363T229 340T287 337Z" />
<glyph unicode=":" glyph-name="colon" horiz-adv-x="330" d="M165 464Q144 464 129 479T113 516Q113 538 128 553T165 568Q186 568 201 553T217 516Q217 494 202 479T165 464ZM165 128Q144 128 129 143T113 179Q113 201 128 216T165 231Q186 231 201 216T217
179Q217 158 202 143T165 128Z" />
<glyph unicode=";" glyph-name="semicolon" horiz-adv-x="344" d="M168 464Q147 464 132 479T116 516Q116 538 131 553T168 568Q190 568 205 553T220 516Q220 494 205 479T168 464ZM129 -21Q127 -22 124 -22Q120 -22 117 -19T114 -11Q114 -5 118 -2Q153 21 171
48T190 96Q190 108 183 117T160 128Q138 131 127 146T116 178Q116 198 129 214T168 231Q197 231 214 205T231 141Q231 100 208 55T129 -21Z" />
<glyph unicode="&lt;" glyph-name="less" horiz-adv-x="550" d="M478 125L37 336Q24 342 24 357Q24 371 37 377L478 588Q483 591 488 591Q503 591 510 576Q512 570 512 567Q512 551 498 545L117 363Q112 361 112 357T117 351L498 168Q512 162 512 146Q512 143
510 137Q504 123 488 123Q484 123 478 125Z" />
<glyph unicode="=" glyph-name="equal" horiz-adv-x="606" d="M77 416Q66 416 58 424T50 443Q50 454 58 462T77 470H529Q540 470 548 462T556 443Q556 432 548 424T529 416H77ZM77 243Q66 243 58 251T50 270Q50 281 58 289T77 297H529Q540 297 548 289T556 270Q556
259 548 251T529 243H77Z" />
<glyph unicode="&gt;" glyph-name="greater" horiz-adv-x="550" d="M72 125Q66 123 62 123Q46 123 40 137Q38 143 38 146Q38 162 52 168L433 351Q438 353 438 357T433 363L52 545Q38 551 38 567Q38 578 45 584T62 590Q64 590 67 590T72 588L513 377Q527 371 527
357Q527 342 513 336L72 125Z" />
<glyph unicode="?" glyph-name="question" horiz-adv-x="573" d="M272 162Q259 162 251 170T242 191Q243 251 255 290T288 354T332 398T377 435T415 476T435 537Q436 540 436 543T436 551Q436 579 422 609T375 660T286 681Q234 681 196 653T148 580V578Q148 573
154 569Q180 554 180 526Q180 506 166 491T130 476Q102 476 88 495T74 542Q74 571 88 605T129 671T195 721T283 741Q355 741 402 713T473 640T497 548Q497 531 494 514T484 479Q468 440 445 418T396 380T348 342T312 286T299 191Q299 178 291 170T272 162ZM274
-13Q252 -13 237 3T221 41Q221 63 236 78T274 94Q297 94 312 79T327 41Q327 19 312 3T274 -13Z" />
<glyph unicode="@" glyph-name="at" horiz-adv-x="767" d="M357 -16Q289 -17 230 8T128 80T63 187T45 318Q51 414 85 486T173 607T292 679T424 704Q522 704 592 668T699 569T730 422Q725 353 701 297T637 203T548 154Q543 153 539 153T529 152Q502 152 485 167T461
209Q458 219 451 212Q425 184 395 170T336 156Q286 156 249 193T212 296Q212 313 215 331Q226 396 253 437T316 499T388 519Q423 519 454 502T504 450Q507 445 510 445Q515 445 516 451L523 477Q528 495 546 495Q560 495 567 485T570 464L513 268Q507 247 507 232Q507
201 531 201Q550 201 584 224Q610 242 631 273T665 341Q671 360 675 384T679 434Q679 472 668 511T628 584T551 637T426 657Q335 657 263 614T147 495T93 315Q93 310 93 305T92 294Q92 220 127 161T225 68T367 34Q427 34 476 50T563 90T629 139T673 185Q681 194
692 194Q700 194 708 189Q719 181 719 169Q719 160 714 155Q685 117 633 77T510 11T357 -16ZM463 277Q465 280 466 282T468 287L494 380Q496 388 495 390Q483 426 455 446T394 466Q355 466 319 434T270 329Q267 313 267 299Q267 255 290 235T345 214Q375 214 407
230T463 277Z" />
<glyph unicode="A" glyph-name="A" horiz-adv-x="858" d="M58 -12Q44 -13 34 -4T23 21Q23 36 33 46T58 54Q68 53 79 52T100 50H102Q107 50 111 56L404 710Q412 725 429 725Q445 725 453 710L747 56Q751 50 756 50Q767 50 778 51T800 54Q814 56 824 46T835 21Q835
6 825 -3T800 -12Q743 -6 707 -6Q668 -6 614 -12Q601 -13 591 -4T580 21Q580 36 590 46T614 54Q627 53 641 52T670 49H672Q682 49 677 59L619 189Q616 196 609 196H249Q243 196 239 189L181 59Q180 57 180 54Q180 49 186 49Q200 49 215 51T244 54Q258 56 268 46T278
21Q278 6 268 -3T244 -12Q186 -6 151 -6Q111 -6 58 -12ZM281 256H577Q589 256 584 267L435 600Q434 606 429 606Q426 606 423 600L274 267Q273 265 273 263Q273 256 281 256Z" />
<glyph unicode="B" glyph-name="B" horiz-adv-x="646" d="M92 -11Q77 -13 66 -3T54 24Q54 40 65 50T92 58Q104 56 116 55T142 53H144Q151 53 151 61V652Q151 661 142 661Q120 659 98 655Q83 653 72 663T60 689Q60 706 71 716T98 724Q113 722 130 720T163 717L336
716Q399 716 442 699T512 654T551 595T563 534Q563 479 536 444T465 385Q461 383 461 380T466 374Q524 349 558 305T592 197Q592 146 572 108T519 46T444 9T362 -3H176Q156 -3 134 -6T92 -11ZM226 401H318Q499 411 499 534Q499 588 455 620T336 652H226Q217 652
217 643V410Q217 401 226 401ZM226 61H362Q440 61 484 97T529 197Q529 340 307 340H226Q217 340 217 331V70Q217 61 226 61Z" />
<glyph unicode="C" glyph-name="C" horiz-adv-x="762" d="M413 -12Q340 -12 277 16T165 96T89 214T61 357Q61 434 88 500T164 617T276 696T413 725Q549 725 644 636Q664 617 679 596T694 549Q694 525 678 508T638 491Q614 491 598 508T582 548Q582 568 596 582Q602
588 597 595Q566 627 518 645T413 663Q332 663 267 623T165 514T127 357Q127 271 164 203T267 95T413 55Q485 55 546 87T647 179Q651 186 657 189T671 192Q680 192 687 186Q702 174 702 156Q702 146 695 135Q645 65 571 27T413 -12Z" />
<glyph unicode="D" glyph-name="D" horiz-adv-x="737" d="M92 -11Q77 -13 66 -3T54 24Q54 41 65 51T92 59L132 53H134Q142 53 142 62V652Q142 660 135 660Q123 660 111 658T87 655Q74 655 64 665T54 689Q54 706 65 716T92 724Q112 722 134 719T176 716H309Q418
716 500 671T628 545T674 357Q674 244 630 164T502 40T303 -3H170Q151 -3 131 -5T92 -11ZM217 62H303Q337 62 378 68T460 92T535 142T589 227T610 357Q610 407 594 459T543 554T450 624T309 651H217Q208 651 208 642V71Q208 62 217 62Z" />
<glyph unicode="E" glyph-name="E" horiz-adv-x="656" d="M93 -11Q77 -13 66 -3T54 24Q54 41 65 50T93 58Q100 57 108 56T124 54H126Q133 54 133 62V652Q133 660 126 660Q116 660 106 658T88 655Q75 655 65 665T54 689Q54 706 65 716T93 724Q113 722 135 719T176
716H524Q546 716 562 701T580 662L586 578Q588 563 577 552T551 541Q537 541 527 551T516 575Q516 591 518 608T521 641V643Q521 651 512 651H208Q199 651 199 642V412Q199 403 208 403H465Q479 403 488 394T497 371Q497 358 488 349T465 340H208Q199 340 199 331V71Q199
62 208 62H512Q522 62 521 72Q520 89 518 107T516 138Q516 152 526 162T551 172Q566 172 577 161T586 135L580 51Q579 29 563 13T524 -3H170Q151 -3 131 -6T93 -11Z" />
<glyph unicode="F" glyph-name="F" horiz-adv-x="644" d="M88 -12Q75 -13 65 -3T54 21Q54 35 64 45T88 54Q105 51 124 51H126Q133 51 133 59V652Q133 660 126 660Q117 660 109 659T92 656Q77 654 66 664T54 690Q54 705 65 715T92 724Q112 721 134 719T176 716H524Q546
716 562 701T580 662L586 578Q588 563 577 552T551 541Q537 541 527 551T516 575Q516 591 518 608T521 641V643Q521 651 512 651H208Q199 651 199 642V412Q199 403 208 403H465Q479 403 488 394T497 371Q497 358 488 349T465 340H208Q199 340 199 331V57Q199 48
208 48Q225 49 242 50T274 54Q288 56 298 46T309 21Q309 6 299 -3T274 -12Q245 -9 223 -8T181 -6Q162 -6 140 -7T88 -12Z" />
<glyph unicode="G" glyph-name="G" horiz-adv-x="810" d="M668 -12Q655 -12 646 -3T636 20V98Q636 104 633 105T625 102Q589 57 533 23T396 -11Q317 -11 255 18T151 99T86 216T63 355Q63 442 92 511T172 628T284 701T412 726Q464 726 514 710T608 658Q659 619
659 579Q659 554 643 538T603 522Q578 522 564 539T549 578Q549 595 557 608Q562 616 555 620Q524 642 488 652T415 663Q363 663 313 643T223 583T159 486T135 355Q136 267 169 199T261 91T395 52Q557 52 633 203Q636 209 636 214V279Q636 288 627 288Q620 289
614 289T601 289Q582 289 562 288T515 283Q502 282 492 292T481 316Q481 330 491 340T515 349Q544 346 566 345T608 343Q629 343 651 344T702 349Q716 351 726 341T736 316Q736 302 726 292T702 283Q702 283 702 281T701 274V20Q701 7 692 -2T668 -12Z" />
<glyph unicode="H" glyph-name="H" horiz-adv-x="808" d="M88 -12Q75 -13 65 -3T54 21Q54 35 64 45T88 54Q98 53 108 52T130 50H132Q139 50 139 59V654Q139 663 132 663Q120 663 109 662T88 659Q75 658 65 668T54 692Q54 706 64 716T88 725Q117 722 140 721T185
719Q205 719 226 720T275 725Q289 727 299 717T309 692Q309 678 299 668T275 659L213 665Q204 665 204 656V412Q204 403 213 403H595Q604 403 604 412V656Q604 665 595 665L533 659Q520 658 510 668T499 692Q499 706 509 716T533 725Q562 722 585 721T630 719Q650
719 671 720T720 725Q734 727 744 717T754 692Q754 678 744 668T720 659Q710 661 700 661T678 663H676Q669 663 669 654V59Q669 50 677 50Q689 50 699 51T720 54Q734 56 744 46T754 21Q754 7 744 -3T720 -12Q692 -9 669 -8T623 -6Q586 -6 533 -12Q520 -13 510 -3T499
21Q499 35 509 45T533 54L595 48Q604 48 604 57V330Q604 339 595 339H213Q204 339 204 330V57Q204 48 213 48L275 54Q289 56 299 46T309 21Q309 7 299 -3T275 -12Q247 -9 224 -8T178 -6Q141 -6 88 -12Z" />
<glyph unicode="I" glyph-name="I" horiz-adv-x="374" d="M89 -12Q75 -13 65 -4T54 21Q54 36 64 46T89 54Q102 53 116 52T146 49Q155 49 155 58V655Q155 664 146 664Q131 663 117 662T89 659Q75 658 65 667T54 692Q54 707 64 717T89 725Q118 722 142 721T190 719Q212
719 234 720T285 725Q299 727 309 717T320 692Q320 677 310 668T285 659Q272 661 258 662T230 664Q221 664 221 655V58Q221 50 229 50Q244 50 258 51T285 54Q299 56 309 46T320 21Q320 6 310 -3T285 -12Q256 -9 232 -8T184 -6Q143 -6 89 -12Z" />
<glyph unicode="J" glyph-name="J" horiz-adv-x="629" d="M267 -13Q190 -13 134 17T49 104Q39 124 34 145T29 188Q29 229 47 259T97 289Q121 289 136 273T151 234Q151 206 138 193T106 178Q97 177 97 168Q99 147 116 120T170 72T267 52Q313 52 349 76T407 143T429
238V655Q429 663 422 663Q408 663 395 662T368 659Q355 658 345 668T334 692Q334 706 344 716T368 725Q398 722 420 721T462 719Q482 719 504 720T555 725Q569 727 579 717T589 692Q589 678 579 668T555 659Q543 661 530 661T503 663H501Q494 663 494 655V238Q494
160 461 104T376 17T267 -13Z" />
<glyph unicode="K" glyph-name="K" horiz-adv-x="737" d="M88 -12Q75 -13 65 -3T54 21Q54 35 64 45T88 53L130 50H132Q139 50 139 58V654Q139 663 132 663Q120 663 109 662T89 659Q76 658 66 667T55 692Q55 707 65 717T89 725Q119 722 141 721T182 719Q202 719
224 720T275 725Q289 727 299 717T310 692Q310 677 300 668T275 659L214 665Q205 665 205 656V350Q205 344 208 343T216 345L550 654Q553 657 553 659Q553 665 545 665Q529 664 512 663T480 659Q466 658 456 667T445 692Q445 707 455 717T480 725Q511 722 534 721T580
719Q602 719 625 720T676 725Q690 727 700 717T710 692Q710 678 701 669T679 659Q674 659 669 659T658 661Q651 661 647 657L398 428Q391 423 397 415L632 55Q635 49 644 49Q657 51 669 52T692 54Q706 56 716 46T727 21Q727 6 717 -3T692 -12Q661 -9 638 -8T592
-6Q570 -6 548 -7T496 -12Q483 -13 473 -3T462 21Q462 35 472 45T496 54Q508 53 521 52T547 50H549Q560 50 553 60L349 371Q344 379 337 372L210 255Q205 250 205 244V57Q205 48 214 48Q230 50 245 51T274 53Q288 55 298 45T309 21Q309 6 299 -3T274 -12Q246 -9
224 -8T181 -6Q161 -6 139 -7T88 -12Z" />
<glyph unicode="L" glyph-name="L" horiz-adv-x="612" d="M93 -11Q77 -13 66 -2T54 25Q54 40 64 51T89 62Q99 62 109 61T130 58H132Q139 58 139 66V654Q139 663 132 663Q120 663 109 662T89 659Q75 658 65 667T54 692Q54 707 64 717T89 725Q118 722 140 721T182
719Q202 719 224 720T275 725Q289 727 299 717T309 692Q309 677 299 668T275 659L214 665Q205 665 205 656V71Q205 62 214 62H484Q494 62 492 71Q491 93 489 115T487 153Q487 167 497 177T522 187Q537 187 548 176T558 150Q557 128 555 103T551 51Q550 29 534 13T495
-3H191Q165 -4 140 -6T93 -11Z" />
<glyph unicode="M" glyph-name="M" horiz-adv-x="943" d="M82 -12Q68 -13 58 -4T47 21Q47 36 57 46T82 54Q91 53 101 52T122 50H124Q131 50 131 59V653Q131 662 122 662Q114 661 105 661T85 659Q71 657 60 667T49 692Q49 706 60 716T85 724Q118 720 140 718T187
716Q211 716 231 702T261 665L456 170Q459 164 462 164Q467 164 468 170L677 666Q686 688 706 702T752 716Q778 716 799 718T851 724Q865 726 876 716T887 691Q887 677 876 667T851 659Q830 662 814 662H812Q805 662 805 654V59Q805 50 813 50Q824 50 834 51T854
54Q868 56 878 46T889 21Q889 6 879 -3T854 -12Q825 -9 803 -8T761 -6Q741 -6 720 -7T668 -12Q655 -13 645 -4T634 21Q634 36 644 46T668 54L730 48Q739 48 739 57V632Q739 639 735 640T729 635L501 105Q488 78 460 78Q447 78 437 86T421 105L207 641Q206 647 202
647Q197 647 197 639V57Q197 48 206 48L268 54Q282 56 292 46T302 21Q302 6 292 -3T268 -12Q239 -9 217 -8T175 -6Q155 -6 133 -7T82 -12Z" />
<glyph unicode="N" glyph-name="N" horiz-adv-x="795" d="M88 -12Q75 -13 65 -3T54 21Q54 35 64 45T88 54Q97 53 107 52T129 50H131Q138 50 138 59V650Q138 661 128 659L94 653Q78 651 66 662T54 689Q54 706 66 716T94 724Q107 722 121 720T149 716Q177 715 200
702T236 669L594 113Q597 108 600 108Q605 108 605 116V656Q605 665 596 665L534 659Q520 658 510 667T499 692Q499 707 509 717T534 725Q563 722 585 721T627 719Q647 719 669 720T720 725Q734 727 744 717T754 692Q754 678 744 668T720 659Q711 661 701 661T679
663H677Q670 663 670 654V35Q670 18 658 6T628 -6Q601 -6 585 17L214 587Q211 592 208 592Q203 592 203 584V57Q203 48 212 48L274 54Q288 56 298 46T309 21Q309 6 299 -3T274 -12Q245 -9 223 -8T181 -6Q162 -6 140 -7T88 -12Z" />
<glyph unicode="O" glyph-name="O" horiz-adv-x="812" d="M406 -12Q333 -12 270 16T158 96T82 214T54 357Q54 434 81 500T157 617T269 696T406 725Q479 725 542 697T654 618T730 501T758 357Q758 281 731 214T655 96T543 17T406 -12ZM406 55Q488 55 552 94T653
201T690 357Q690 444 653 512T552 619T406 658Q324 658 260 619T158 511T121 357Q121 271 158 203T260 95T406 55Z" />
<glyph unicode="P" glyph-name="P" horiz-adv-x="669" d="M89 -11Q76 -12 65 -3T54 21Q54 36 64 46T89 54Q98 53 108 52T130 50H132Q139 50 139 59V651Q139 660 130 660Q120 659 111 658T92 655Q77 653 66 663T54 689Q54 705 65 715T92 724Q112 721 134 719T177
716H354Q485 716 555 660T626 503Q626 402 557 346T362 290H214Q205 290 205 281V57Q205 48 214 48L275 54Q289 56 299 46T309 21Q309 7 299 -2T275 -11Q245 -9 223 -8T180 -6Q160 -6 139 -7T89 -11ZM214 354H371Q564 354 564 503Q564 575 517 613T377 653H214Q205
653 205 644V363Q205 354 214 354Z" />
<glyph unicode="Q" glyph-name="Q" horiz-adv-x="816" d="M637 -168Q573 -168 532 -128T476 -14Q473 -6 465 -7Q451 -10 436 -11T406 -12Q333 -12 270 16T158 96T82 214T54 357Q54 434 81 500T157 617T269 696T406 725Q479 725 542 697T654 618T730 501T758 357Q758
280 730 213T653 94T539 15Q531 12 533 4Q542 -115 643 -115Q672 -115 690 -105T725 -68Q731 -57 745 -57Q754 -57 759 -62Q772 -72 772 -86Q772 -95 766 -101Q741 -136 711 -152T637 -168ZM406 55Q488 55 552 94T653 201T690 357Q690 444 653 512T552 619T406
658Q324 658 260 619T158 511T121 357Q121 271 158 203T260 95T406 55Z" />
<glyph unicode="R" glyph-name="R" horiz-adv-x="721" d="M89 -12Q75 -13 65 -4T54 21Q54 36 64 46T89 54Q98 53 108 52T130 50H132Q139 50 139 59V651Q139 660 130 660Q118 659 108 658T87 656Q74 656 64 665T54 689Q54 705 65 715T92 724Q112 721 134 719T177
716L360 715Q487 714 556 659T626 503Q626 421 579 368T444 297Q440 296 438 293T439 285L591 54Q594 48 603 48Q645 50 677 54Q691 56 701 46T712 21Q712 6 702 -3T677 -12Q674 -11 660 -10T626 -7T589 -5Q554 -5 533 25L363 284Q360 290 352 290H214Q205 290
205 281V57Q205 48 214 48L275 54Q289 56 299 46T309 21Q309 6 299 -3T275 -12Q246 -9 224 -8T182 -6Q162 -6 140 -7T89 -12ZM214 354H371Q564 354 564 503Q564 577 515 615T371 653H214Q205 653 205 644V363Q205 354 214 354Z" />
<glyph unicode="S" glyph-name="S" horiz-adv-x="617" d="M316 -12Q244 -12 184 13T83 88Q60 114 60 143Q60 166 75 182T118 198Q141 198 155 182T170 144Q170 128 161 113Q157 106 162 100Q191 75 228 64T303 52Q351 52 393 69T462 116T489 189Q489 226 468 250T413
292T337 322T255 351T179 389T123 444T102 527Q102 600 136 644T223 707T333 727Q387 727 435 712T515 671T546 612Q545 589 529 573T490 556Q465 556 450 574T435 612Q435 623 439 631Q443 640 442 641Q429 649 399 656T332 663Q295 663 259 652T198 615T168 539Q165
498 184 473T238 430T314 400T398 371T476 334T533 277T555 189Q555 131 524 86T439 14T316 -12Z" />
<glyph unicode="T" glyph-name="T" horiz-adv-x="674" d="M239 -11Q226 -12 216 -3T205 21Q205 35 215 45T239 54Q252 53 266 52T296 49Q305 49 305 58V643Q305 652 296 652H125Q117 652 117 643L122 558Q124 543 113 532T87 521Q72 521 62 532T52 558Q54 581
56 608T59 662Q61 685 77 700T115 716H560Q582 716 598 701T615 662Q617 635 619 608T622 558Q624 543 613 532T587 521Q572 521 562 532T552 558L557 643Q557 652 549 652H379Q370 652 370 643V58Q370 49 379 49Q394 51 408 52T436 54Q450 56 460 46T470 21Q470
7 460 -2T436 -11Q406 -8 389 -7T361 -6T337 -5Q323 -5 312 -5T284 -7T239 -11Z" />
<glyph unicode="U" glyph-name="U" horiz-adv-x="746" d="M373 -12Q259 -12 194 61T129 260V655Q129 663 122 663Q109 663 97 662T73 659Q59 658 49 667T38 692Q38 707 48 717T73 725Q102 722 124 721T166 719Q186 719 208 720T259 725Q273 727 283 717T293 692Q293
678 283 668T259 659Q246 661 232 662T202 664Q193 664 193 655V259Q193 244 195 219T207 164T236 109T289 66T373 49Q425 49 458 66T510 109T539 165T550 219T553 259V655Q553 664 544 664Q529 663 515 662T487 659Q474 658 464 668T453 692Q453 706 463 716T487
725Q517 722 539 721T580 719Q600 719 622 720T673 725Q687 727 697 717T708 692Q708 677 698 668T673 659Q663 661 651 661T626 663H624Q617 663 617 655V260Q617 133 552 61T373 -12Z" />
<glyph unicode="V" glyph-name="V" horiz-adv-x="752" d="M375 -12Q356 -12 341 -1T319 29L114 656Q111 664 104 664Q92 663 80 662T57 659Q44 658 34 668T23 692Q23 706 33 716T57 725Q87 722 109 721T150 719Q170 719 192 720T243 725Q257 727 267 717T278 692Q278
677 268 668T243 659Q231 661 218 661T191 663H189Q180 663 183 653L370 71Q374 64 376 64Q380 64 382 71L571 653Q571 654 571 655T572 657Q572 663 565 663Q550 663 537 662T509 659Q495 658 485 667T474 692Q474 707 484 717T509 725Q538 722 560 721T602 719Q622
719 644 720T695 725Q709 727 719 717T729 692Q729 678 719 668T695 659Q684 661 672 662T647 664Q640 664 637 656L432 29Q426 10 411 -1T375 -12Z" />
<glyph unicode="W" glyph-name="W" horiz-adv-x="1001" d="M310 -12Q296 -12 285 -3T270 20L109 656Q108 663 101 663Q89 663 79 662T57 659Q44 658 34 668T23 692Q23 706 33 716T57 725Q87 722 109 721T151 719Q171 719 193 720T244 725Q258 727 268 717T278
692Q278 678 268 668T244 659Q227 661 207 662T168 665Q169 664 169 663L305 122Q307 116 311 116Q315 116 316 122L462 679Q466 693 477 702T503 712Q517 712 528 703T544 679L690 121Q692 115 696 115Q700 115 701 121L834 655V658Q834 665 826 665Q810 664 794
663T762 659Q749 658 739 668T728 692Q728 706 738 716T762 725Q792 722 814 721T856 719Q876 719 898 720T949 725Q963 727 973 717T983 692Q983 678 973 668T949 659Q939 661 929 661T908 663Q899 663 898 655L736 20Q732 6 722 -3T697 -12Q684 -12 673 -4T658
18L509 591Q508 597 503 597Q499 597 497 591L350 20Q346 6 335 -3T310 -12Z" />
<glyph unicode="X" glyph-name="X" horiz-adv-x="798" d="M84 -12Q71 -13 61 -3T50 21Q50 35 59 44T81 53Q93 53 106 52T133 49Q140 49 144 55L354 358Q358 364 354 370L159 658Q155 664 148 664Q134 663 121 662T94 659Q81 658 71 668T60 692Q60 706 70 716T94
725Q124 722 146 721T188 719Q208 719 230 720T281 725Q295 727 305 717T315 692Q315 679 306 669T284 659Q275 659 266 660T246 663Q234 663 240 652L392 416Q397 407 404 416L559 652Q561 656 561 658Q561 663 553 663Q543 662 533 661T514 659Q501 659 492 669T483
692Q483 706 493 716T517 725Q547 722 569 721T611 719Q631 719 653 720T704 725Q718 727 728 717T738 692Q738 678 728 668T704 659Q692 661 680 662T653 664Q647 664 642 658L458 392L442 368Q443 369 449 362L657 55Q662 49 669 49Q681 51 693 52T717 53Q729
53 738 44T748 21Q748 7 738 -3T714 -12Q685 -9 663 -8T621 -6Q600 -6 578 -7T527 -12Q514 -13 504 -3T493 21Q493 35 503 45T527 53L570 50H572Q584 50 577 60L407 321Q401 329 395 321L225 61Q223 57 223 55Q223 48 231 50L271 53Q284 55 294 45T305 21Q305 7
295 -3T271 -12Q242 -9 220 -8T178 -6Q157 -6 135 -7T84 -12ZM413 347Q415 349 414 350Q413 347 413 347Z" />
<glyph unicode="Y" glyph-name="Y" horiz-adv-x="668" d="M237 -9Q223 -10 213 -1T202 24Q202 39 212 49T237 57Q250 56 265 55T295 52H297Q304 52 304 60V286Q304 293 301 297L110 654Q107 662 99 660L59 657Q45 656 35 665T24 689Q24 704 34 714T58 722Q88 719
108 718T148 716Q168 716 190 717T244 722Q258 724 268 714T279 689Q279 675 268 666T243 657Q230 659 215 660T185 662H183Q179 662 178 659T178 652L329 361Q331 356 335 356T341 361L491 652Q492 654 492 657Q492 662 487 662Q471 662 455 661T425 657Q411 656
400 665T389 689Q389 704 399 714T424 722Q453 719 474 718T514 716Q534 716 556 717T610 722Q624 724 634 714T644 689Q644 675 634 666T609 657L570 660H568Q563 660 559 654L369 303Q366 299 366 292V60Q366 52 373 52Q388 52 404 54T433 57Q447 59 457 49T467
24Q467 10 457 0T433 -9Q403 -6 379 -5T331 -3Q309 -3 287 -4T237 -9Z" />
<glyph unicode="Z" glyph-name="Z" horiz-adv-x="680" d="M96 -3Q80 -3 68 6T51 30Q48 39 48 50Q48 75 63 91L513 641Q515 643 515 647Q515 652 508 652H124Q115 652 116 643Q118 621 119 599T122 558Q124 544 113 533T87 521Q72 521 62 532T52 558Q54 581 56
608T59 662Q60 685 76 700T114 716H550Q564 716 576 707T593 684Q596 675 596 665Q596 643 581 626L128 72Q126 70 126 66Q126 61 133 61H559Q569 61 567 70Q566 93 565 115T561 155Q560 171 571 182T597 193Q612 193 622 182T632 155Q631 133 629 106T624 51Q623
29 608 13T570 -3H96Z" />
<glyph unicode="[" glyph-name="bracketleft" horiz-adv-x="350" d="M124 -106Q102 -106 86 -90T70 -52V766Q70 789 86 804T124 820H307Q317 820 322 814T327 801Q327 794 322 788T307 781H148Q134 781 123 771T112 745V-31Q112 -46 123 -56T148 -67H307Q317 -67
322 -73T327 -87Q327 -94 322 -100T307 -106H124Z" />
<glyph unicode="\" glyph-name="backslash" horiz-adv-x="355" d="M329 -38Q326 -39 321 -39Q305 -39 302 -26L16 724Q14 730 14 733Q14 748 27 751Q30 752 35 752Q51 752 54 739L340 -11Q341 -14 341 -19Q341 -35 329 -38Z" />
<glyph unicode="]" glyph-name="bracketright" horiz-adv-x="350" d="M43 -106Q33 -106 29 -100T24 -87Q24 -79 28 -73T43 -67H202Q216 -67 227 -57T238 -31V745Q238 759 227 770T202 781H43Q33 781 29 787T24 801Q24 808 28 814T43 820H226Q249 820 264 805T280
766V-52Q280 -75 265 -90T226 -106H43Z" />
<glyph unicode="^" glyph-name="asciicircum" horiz-adv-x="566" d="M59 79Q46 79 40 87T34 106Q34 109 34 111T36 117L242 582Q254 607 283 607Q312 607 324 582L530 117Q531 114 531 112T532 106Q532 89 517 81Q511 79 507 79Q491 79 485 93L289 534Q288 540
283 540Q280 540 277 534L81 93Q75 79 59 79Z" />
<glyph unicode="_" glyph-name="underscore" horiz-adv-x="488" d="M17 -114Q9 -114 5 -109T0 -98Q0 -91 4 -86T17 -81H471Q479 -81 483 -86T488 -97Q488 -104 484 -109T471 -114H17Z" />
<glyph unicode="`" glyph-name="grave" horiz-adv-x="342" d="M209 534L110 618Q100 628 100 641Q100 652 108 662Q117 671 129 671Q143 671 150 661L237 563Q242 558 242 549Q242 539 237 534Q231 528 223 528Q215 528 209 534Z" />
<glyph unicode="a" glyph-name="a" horiz-adv-x="562" d="M198 -11Q133 -11 92 26T50 122Q50 196 99 236T226 277Q292 277 370 245Q372 244 375 244Q381 244 381 251V301Q381 370 345 408T252 446Q215 446 174 428Q167 424 170 416Q174 407 174 396Q174 376 160
361T123 346Q99 346 85 362T71 401Q71 424 87 443Q113 473 152 489T237 506Q336 506 389 453T443 301V54Q443 45 452 45Q465 46 477 49T500 53Q513 53 521 44T530 21Q530 6 519 -3T494 -11Q481 -8 466 -6T435 -3Q412 -3 397 13T381 51Q381 52 381 52T380 52Q377
52 370 47Q335 19 295 4T198 -11ZM198 49Q257 51 297 68T377 127Q381 132 381 138V174Q381 181 375 184Q353 196 319 208T230 220Q174 220 142 194T109 122Q109 90 134 70T198 49Z" />
<glyph unicode="b" glyph-name="b" horiz-adv-x="624" d="M324 -11Q283 -11 246 6T179 53Q176 56 173 56Q168 56 168 49V29Q168 16 159 7T136 -3Q123 -3 114 6T105 29V668Q105 678 96 676L49 673Q36 672 27 680T18 701Q18 714 27 723T48 730Q63 729 80 728T114
725Q137 724 152 709T168 671V429Q168 423 171 422T178 424Q207 459 246 482T334 505Q394 505 438 482T512 422T555 338T570 247Q570 201 554 155T507 72T430 12T324 -11ZM325 50Q376 50 416 76T480 148T504 248Q504 306 481 350T418 419T326 445Q282 445 242 425T172
369Q168 364 168 358V136Q168 131 171 125Q224 50 325 50Z" />
<glyph unicode="c" glyph-name="c" horiz-adv-x="550" d="M309 -11Q246 -11 197 11T114 70T63 153T45 247Q45 321 78 379T168 472T296 506Q411 506 474 428Q508 388 508 354Q508 339 501 326Q485 300 456 300Q434 300 420 315T405 353Q405 360 409 368T417 382Q422
389 419 394Q400 422 371 435T296 449Q241 449 199 423T132 352T108 247Q108 191 134 146T205 75T306 49Q391 49 456 119Q465 128 477 128Q488 128 496 120Q506 109 506 94Q506 80 498 72Q461 32 412 11T309 -11Z" />
<glyph unicode="d" glyph-name="d" horiz-adv-x="634" d="M300 -11Q240 -11 195 11T118 71T70 155T54 247Q54 292 68 338T112 421T185 482T290 505Q338 505 376 483T443 427Q446 423 449 423Q454 423 454 431V668Q454 678 445 676L398 673Q385 672 376 680T367
701Q367 715 376 723T398 730Q412 729 429 728T463 725Q486 724 501 709T517 671V54Q517 45 527 45Q540 46 552 49T574 52Q587 52 595 44T604 21Q604 7 594 -2T569 -10Q530 -3 508 -3Q486 -3 470 13T454 51Q454 56 451 56Q448 56 443 51Q414 22 378 6T300 -11ZM299
50Q397 50 450 122Q454 127 454 133V361Q454 367 450 372Q421 405 381 425T298 445Q246 445 206 420T143 350T120 248Q120 192 143 147T207 76T299 50Z" />
<glyph unicode="e" glyph-name="e" horiz-adv-x="576" d="M300 -11Q230 -11 173 24T82 117T48 247Q48 320 80 378T167 471T290 506Q389 506 453 444T528 273Q530 252 515 236T477 220H120Q109 220 112 210Q120 163 147 127T214 69T300 48Q338 48 373 64T436 111Q449
124 464 124Q473 124 482 118Q495 108 495 94Q495 83 488 76Q453 35 404 12T300 -11ZM120 280H455Q466 280 463 291Q451 369 407 410T290 451Q218 451 170 408T111 290V288Q111 280 120 280Z" />
<glyph unicode="f" glyph-name="f" horiz-adv-x="414" d="M95 -11Q82 -12 73 -4T63 17Q63 31 72 39T94 46L139 43H141Q148 43 148 51V432Q148 441 139 441H77Q65 441 57 449T48 470Q48 481 56 489T77 498H139Q148 498 148 507V571Q148 641 188 685T289 730Q333
730 358 717T393 685T404 649Q404 627 390 613T355 599Q331 599 317 617T306 658V661Q306 666 302 669Q294 673 282 673Q251 673 229 644T207 571V507Q207 498 216 498H330Q342 498 350 490T358 470Q358 458 350 450T330 441H216Q207 441 207 432V51Q207 42 216
43L261 46Q274 48 283 40T292 17Q292 4 283 -4T261 -11Q231 -8 217 -7T195 -6T177 -6Q166 -6 158 -6T137 -8T95 -11Z" />
<glyph unicode="g" glyph-name="g" horiz-adv-x="640" d="M278 -253Q172 -253 116 -184Q86 -148 86 -108Q86 -82 100 -63T142 -44Q168 -44 182 -60T197 -98Q197 -110 192 -122T174 -145Q167 -152 171 -157Q199 -199 278 -199Q323 -199 355 -179T409 -127T440 -56T450
21V60Q450 66 447 67T439 64Q410 33 374 15T296 -3Q234 -3 188 19T111 78T65 160T50 251Q50 296 64 340T108 422T181 482T286 505Q336 505 374 488T439 440Q442 437 445 437Q450 437 450 445V467Q450 481 459 490T482 499H519Q522 499 533 500T556 503T571 505Q584
507 594 498T604 475Q604 461 594 452T571 444Q560 446 548 447T522 449H520Q513 449 513 441V21Q513 -21 500 -68T458 -158T385 -226T278 -253ZM295 58Q343 58 382 76T446 129Q450 134 450 140V367Q450 373 446 378Q418 410 378 428T294 446Q242 446 202 421T139
353T116 252Q116 198 139 154T203 84T295 58Z" />
<glyph unicode="h" glyph-name="h" horiz-adv-x="641" d="M70 -11Q58 -12 49 -4T40 17Q40 30 49 39T70 46L114 43H116Q123 43 123 51V668Q123 678 114 676L69 673Q56 672 47 680T38 702Q38 715 47 723T68 730Q82 729 99 728T132 725Q155 724 170 709T186 671V408Q186
402 189 401T197 404Q305 506 396 506Q524 506 524 334V51Q524 41 534 43L576 46Q588 48 597 39T606 17Q606 4 597 -4T576 -11Q543 -8 525 -7T492 -6Q473 -6 456 -7T408 -11Q396 -12 387 -4T378 17Q378 30 387 39T408 46L451 43H453Q460 43 460 51V335Q460 388
442 413T384 438Q297 438 191 341Q186 336 186 329V51Q186 42 195 43L238 46Q250 48 259 39T268 17Q268 4 259 -4T238 -11Q206 -8 188 -7T154 -6Q136 -6 118 -7T70 -11Z" />
<glyph unicode="i" glyph-name="i" horiz-adv-x="333" d="M173 605Q151 605 135 621T119 659Q119 682 135 697T173 713Q196 713 211 698T227 659Q227 637 212 621T173 605ZM85 -12Q71 -13 61 -4T50 21Q50 36 60 46T85 54Q96 53 107 52T131 49Q141 49 141 58V435Q141
444 132 444Q120 443 108 443T85 440Q71 439 61 448T50 473Q50 487 59 496T82 506Q82 506 79 507Q78 507 76 507Q78 507 79 507Q98 505 121 503T151 501Q174 501 189 486T205 447V58Q205 49 215 49Q227 51 239 52T261 54Q275 56 285 46T295 21Q295 6 285 -3T261
-12Q241 -10 218 -8T173 -6Q152 -6 129 -8T85 -12Z" />
<glyph unicode="j" glyph-name="j" horiz-adv-x="345" d="M231 608Q209 608 193 624T177 662Q177 685 193 700T231 716Q254 716 269 701T285 662Q285 640 270 624T231 608ZM61 -253Q17 -253 -19 -234T-78 -185T-100 -121Q-100 -108 -95 -91Q-88 -71 -73 -61T-41
-51Q-19 -51 -1 -66T17 -108Q17 -138 -7 -154Q-15 -160 -9 -166Q15 -192 61 -192Q127 -192 163 -152T199 -37V441Q199 449 192 449Q179 449 166 448T141 445Q128 443 119 452T109 475Q109 489 119 498T141 505Q166 503 178 501T209 499Q232 499 247 484T263 445V-37Q263
-102 238 -151T168 -226T61 -253Z" />
<glyph unicode="k" glyph-name="k" horiz-adv-x="594" d="M69 -11Q56 -12 47 -4T38 17Q38 31 47 39T69 46L112 43H114Q121 43 121 51V668Q121 677 112 677Q99 676 88 675T66 673Q54 673 46 681T38 701Q38 715 47 723T69 730Q83 729 99 728T130 725Q153 724 168
709T184 671V278Q184 273 187 271T195 273L395 441Q398 444 398 447Q398 452 390 452Q379 451 368 450T347 448Q336 448 328 456T319 477Q319 490 328 499T350 506Q382 503 400 502T433 500Q452 500 469 501T517 506Q529 508 538 499T548 477Q548 465 540 457T520
448Q516 448 512 448T502 449H498Q493 449 490 446L316 299Q309 292 314 286L478 47Q483 41 490 41Q504 43 517 44T543 46Q556 48 565 40T574 17Q574 4 565 -4T543 -11Q511 -8 493 -7T459 -6Q441 -6 423 -7T376 -11Q363 -12 354 -4T345 17Q345 31 354 39T376 46L393
44H394Q399 44 400 47T399 55L266 249Q261 258 254 251L189 196Q184 191 184 185V51Q184 42 193 43L236 46Q249 48 258 40T267 17Q267 4 258 -4T236 -11Q204 -8 186 -7T153 -6Q142 -6 133 -6T109 -8T69 -11Z" />
<glyph unicode="l" glyph-name="l" horiz-adv-x="318" d="M71 -12Q59 -13 50 -5T40 17Q40 31 49 39T71 46L118 43H120Q127 43 127 51V668Q127 678 118 676L72 673Q59 672 50 680T40 701Q40 715 49 723T71 730Q86 729 103 728T137 725Q160 724 175 709T191 671V51Q191
41 201 43L247 46Q260 48 269 40T278 17Q278 4 269 -4T247 -12Q216 -9 197 -8T159 -6Q138 -6 119 -7T71 -12Z" />
<glyph unicode="m" glyph-name="m" horiz-adv-x="964" d="M86 -12Q75 -13 66 -5T56 17Q56 30 65 39T86 46L130 43H132Q139 43 139 51V441Q139 449 132 449Q119 449 106 448T81 445Q68 444 58 452T48 475Q48 489 58 498T81 505Q105 501 133 499H170Q184 499 192
491T201 468V416Q201 410 204 409T212 411Q307 506 392 506Q424 506 450 493Q492 471 509 408Q512 395 521 405Q617 506 707 506Q738 506 769 492Q800 477 815 447T837 382T843 318V51Q843 41 853 43L896 46Q908 48 917 39T926 17Q926 4 917 -4T896 -12Q865 -9
847 -8T812 -6Q794 -6 776 -7T728 -12Q717 -13 708 -5T698 17Q698 30 707 39T728 46L771 43H773Q780 43 780 51V318Q780 365 766 396T729 435Q712 440 698 440Q622 440 523 335Q518 330 518 324V51Q518 42 527 43L571 46Q584 48 593 40T602 17Q602 4 593 -4T571
-12Q540 -9 522 -8T488 -6Q469 -6 452 -7T404 -12Q392 -13 383 -5T373 17Q373 31 382 39T404 46L448 43H450Q457 43 457 51V318Q457 368 446 398T411 436Q399 440 384 440Q307 440 206 334Q201 329 201 323V51Q201 42 210 43L254 46Q266 48 275 39T284 17Q284 4
275 -4T254 -12Q223 -9 205 -8T170 -6Q152 -6 134 -7T86 -12Z" />
<glyph unicode="n" glyph-name="n" horiz-adv-x="653" d="M82 -11Q70 -12 61 -4T52 17Q52 30 61 39T82 46L126 43H128Q135 43 135 51V443Q135 453 126 451L81 448Q69 447 60 455T50 477Q50 490 59 499T80 506Q94 505 111 504T144 501Q167 500 182 484T198 446V408Q198
402 201 401T209 404Q317 506 408 506Q536 506 536 334V51Q536 41 546 43L588 46Q600 48 609 39T618 17Q618 4 609 -4T588 -11Q556 -8 538 -7T504 -6Q486 -6 468 -7T420 -11Q408 -12 399 -4T390 17Q390 30 399 39T420 46L463 43H465Q472 43 472 51V335Q472 388
454 413T396 438Q309 438 203 341Q198 336 198 329V51Q198 42 207 43L250 46Q262 48 271 39T280 17Q280 4 271 -4T250 -11Q218 -8 200 -7T166 -6Q148 -6 130 -7T82 -11Z" />
<glyph unicode="o" glyph-name="o" horiz-adv-x="627" d="M314 -12Q241 -12 181 23T86 117T50 247Q50 319 85 377T181 471T314 506Q368 506 416 486T500 430T556 347T577 247Q577 194 557 147T500 65T416 9T314 -12ZM314 47Q371 47 416 73T488 145T515 247Q515
303 488 348T416 420T314 447Q257 447 212 421T139 349T112 247Q112 191 139 146T212 74T314 47Z" />
<glyph unicode="p" glyph-name="p" horiz-adv-x="644" d="M77 -250Q64 -251 55 -243T46 -222Q46 -208 55 -200T77 -193L120 -196H122Q129 -196 129 -188V436Q129 446 120 444L72 441Q59 440 49 449T38 473Q38 487 48 497T72 506Q92 504 115 502T160 500Q174 500
183 491T192 468V434Q192 428 195 427T202 430Q231 462 269 483T353 505Q413 505 458 482T532 422T575 338T590 247Q590 201 574 155T527 72T449 12T343 -11Q304 -11 268 5T203 49Q200 52 197 52Q192 52 192 44V-188Q192 -197 201 -196L244 -193Q257 -191 266 -199T275
-222Q275 -235 266 -243T244 -250Q212 -247 194 -246T161 -245Q142 -245 125 -246T77 -250ZM345 48Q395 48 435 74T499 146T523 248Q523 306 501 350T438 419T346 444Q255 444 196 363Q192 358 192 352V130Q192 125 195 119Q221 85 259 67T345 48Z" />
<glyph unicode="q" glyph-name="q" horiz-adv-x="607" d="M396 -250Q383 -251 374 -243T365 -222Q365 -208 374 -200T396 -193L439 -196H441Q448 -196 448 -188V44Q448 50 445 51T437 49Q408 21 372 5T297 -11Q237 -11 191 11T114 71T66 155T50 247Q50 292 64
338T108 421T182 482T287 505Q334 505 371 484T437 430Q440 427 443 427Q448 427 448 434V468Q448 482 457 491T479 500Q501 500 524 502T568 506Q582 508 592 498T602 473Q602 459 592 449T568 440Q557 442 545 442T520 444H518Q511 444 511 436V-188Q511 -198
521 -196L563 -193Q576 -191 585 -199T594 -222Q594 -235 585 -243T563 -250Q531 -247 513 -246T479 -245Q461 -245 443 -246T396 -250ZM295 48Q342 48 380 66T444 119Q448 124 448 130V352Q448 358 444 363Q385 444 294 444Q242 444 202 419T140 350T117 248Q117
192 140 147T204 75T295 48Z" />
<glyph unicode="r" glyph-name="r" horiz-adv-x="504" d="M85 -12Q73 -13 64 -5T54 17Q54 31 63 39T85 46L132 43H134Q141 43 141 51V435Q141 444 132 444Q120 443 108 443T85 440Q71 439 61 448T50 473Q50 487 61 497T85 505Q106 503 117 502T141 501T173 501Q187
501 195 492T204 470V390Q204 382 208 382Q212 382 215 387Q281 497 391 511Q397 512 403 512T415 513Q449 513 470 498T491 453Q491 433 477 419T439 404Q420 404 409 414T393 436Q390 444 383 444Q344 444 310 417T249 347T206 257Q204 253 204 246V51Q204 42
213 43L261 46Q274 48 283 40T292 17Q292 4 283 -4T261 -12Q230 -9 211 -8T173 -6Q152 -6 133 -7T85 -12Z" />
<glyph unicode="s" glyph-name="s" horiz-adv-x="541" d="M271 -11Q233 -11 195 -3T125 21T74 59T54 107Q54 129 69 144T105 159Q128 159 142 143T156 107Q156 98 153 89Q152 87 152 85Q152 80 157 77Q180 67 209 58T271 49Q339 49 381 73T424 137Q424 166 400
182T337 209T255 229T174 253T111 293T86 362Q86 427 140 465T284 504Q335 504 374 491T437 457T460 407Q460 405 460 402T459 396Q457 378 443 366T409 354Q387 354 373 369T358 404Q358 412 361 421V424Q361 431 356 433Q324 446 284 446Q226 446 188 423T149
362Q149 335 173 320T236 296T318 277T399 252T462 208T487 134Q487 69 428 29T271 -11Z" />
<glyph unicode="t" glyph-name="t" horiz-adv-x="411" d="M248 -12Q196 -12 162 24T127 112V432Q127 441 118 441H52Q40 441 32 449T23 470Q23 481 31 489T52 498H118Q127 498 127 507V684Q127 698 136 707T159 716Q172 716 181 707T190 684V507Q190 498 199 498H326Q338
498 346 490T354 470Q354 458 346 450T326 441H199Q190 441 190 432V112Q190 109 193 94T208 65T248 51Q277 51 291 67T311 121Q314 149 340 149Q355 149 365 139T373 115Q358 -12 248 -12Z" />
<glyph unicode="u" glyph-name="u" horiz-adv-x="665" d="M302 -11Q234 -11 184 24Q122 69 122 150V443Q122 453 113 451L66 448Q53 447 44 455T35 477Q35 490 44 498T65 505Q89 503 102 503T131 501Q154 501 169 486T185 447V150Q185 115 200 95T236 66T276 55T302
52Q350 52 395 83T474 170Q477 176 477 181V443Q477 453 468 451L421 448Q408 447 399 455T390 477Q390 490 399 498T420 505Q444 503 457 503T486 501Q509 501 524 486T540 447V54Q540 45 550 45Q561 46 572 48T593 51Q607 53 617 44T627 20Q627 6 617 -3T593
-11Q579 -9 563 -7T531 -3Q509 -2 493 13T477 51V82Q477 88 474 89T466 86Q395 -11 302 -11Z" />
<glyph unicode="v" glyph-name="v" horiz-adv-x="626" d="M317 -12Q294 -12 283 10L86 444Q83 450 75 450L44 448Q31 447 22 455T13 477Q13 490 22 498T44 505Q70 503 89 502T128 501Q146 501 166 502T211 505Q224 507 233 499T242 477Q242 464 234 456T214 448Q204
448 191 449T164 452Q152 452 157 441L312 91Q315 85 318 85Q323 85 324 91L471 442Q472 444 472 447Q472 452 466 452Q453 452 440 451T415 448Q402 447 393 455T384 477Q384 490 393 498T415 505Q441 503 460 502T499 501Q517 501 536 502T582 505Q595 507 604
499T613 477Q613 464 604 456T582 448L551 450Q543 450 540 444L349 9Q341 -12 317 -12Z" />
<glyph unicode="w" glyph-name="w" horiz-adv-x="858" d="M265 -12Q252 -12 242 -4T227 17L87 443Q85 450 76 450L43 448Q31 447 22 455T13 477Q13 489 22 498T44 506Q70 504 89 503T127 501Q145 501 164 502T210 506Q223 507 232 498T241 477Q241 464 232 456T211
448Q198 450 184 450T154 452H152Q143 452 146 442L261 88Q263 82 267 82Q272 82 273 88L385 462Q390 477 402 486T428 495Q442 495 454 486T471 462L583 88Q585 82 589 82Q594 82 595 88L710 442Q710 443 710 444T711 446Q711 452 704 452Q689 452 675 451T647
448Q635 447 626 455T617 477Q617 489 626 498T648 506Q674 504 693 503T731 501Q749 501 769 502T814 506Q827 507 836 498T845 477Q845 464 836 456T815 448L779 451H777Q771 451 768 444L627 16Q623 3 613 -4T589 -12Q560 -12 552 16L434 395Q433 401 428 401Q424
401 422 395L303 17Q299 4 289 -4T265 -12Z" />
<glyph unicode="x" glyph-name="x" horiz-adv-x="638" d="M58 -11Q46 -12 37 -4T28 18Q28 30 36 38T55 46Q66 46 78 45T103 42Q109 42 114 47L280 241Q285 247 280 253L116 447Q111 452 105 452Q92 451 79 450T55 448Q44 448 36 456T28 476Q28 489 37 498T58 505Q84
503 103 502T142 501Q160 501 180 502T226 505Q238 507 247 498T256 476Q256 463 247 455T226 448L202 450H200Q196 450 195 447T197 439L315 295Q321 288 327 295L443 439Q445 441 445 445Q445 452 437 450L412 448Q400 447 391 455T382 476Q382 489 391 498T412
505Q439 503 458 502T496 501Q515 501 534 502T580 505Q592 507 601 498T610 476Q610 464 602 456T583 448Q573 448 560 449T533 452Q527 452 522 447L359 254Q355 248 359 242L523 47Q528 42 535 42Q547 44 559 45T583 46Q594 46 602 38T610 18Q610 5 601 -3T580
-11Q554 -9 535 -8T496 -7Q478 -7 459 -8T412 -11Q400 -12 391 -4T382 18Q382 31 391 39T412 46L437 44H439Q444 44 445 47T442 55L322 201Q316 209 310 201L192 55Q190 53 190 49Q190 42 198 44L226 46Q238 48 247 40T256 18Q256 5 247 -3T226 -11Q200 -9 180
-8T142 -7Q123 -7 104 -8T58 -11Z" />
<glyph unicode="y" glyph-name="y" horiz-adv-x="624" d="M129 -252Q97 -252 70 -238T26 -199T10 -146Q10 -115 26 -97T68 -79Q89 -79 104 -94T119 -132Q119 -163 98 -171Q89 -174 95 -180Q110 -198 131 -198Q164 -198 192 -172T241 -100L278 -15Q280 -9 278 -3L82
444Q78 451 71 450L42 447Q31 446 22 454T12 476Q12 489 21 498T42 505Q71 503 90 502T125 500Q143 500 162 501T210 505Q222 507 231 498T240 476Q240 463 231 455T210 447Q197 449 183 450T154 452H152Q142 452 147 442L307 76Q310 70 313 70Q318 70 319 76L483
442Q484 444 484 447Q484 452 478 452Q448 452 416 447Q405 446 396 454T386 476Q386 489 395 498T416 505Q445 503 464 502T499 500Q517 500 536 501T584 505Q596 507 605 498T614 476Q614 463 605 455T584 447L561 449H559Q554 449 550 443L303 -108Q232 -252
129 -252Z" />
<glyph unicode="z" glyph-name="z" horiz-adv-x="513" d="M85 -3Q70 -3 61 7T52 30Q52 43 59 51L339 424Q341 428 341 429Q341 435 333 435H114Q106 435 106 428Q106 415 107 402T110 378Q112 364 102 354T77 343Q62 343 53 353T44 378Q46 393 47 410T50 445Q51
468 66 483T104 499H404Q419 499 428 489T438 465Q438 455 431 444L150 71Q148 67 148 66Q148 60 156 60H403Q412 60 412 69Q411 82 411 94T408 118Q407 132 416 142T441 153Q455 153 465 143T473 118Q472 103 471 86T468 51Q467 29 451 13T414 -3H85Z" />
<glyph unicode="{" glyph-name="braceleft" horiz-adv-x="339" d="M296 -134Q236 -130 205 -106T163 -44T151 39Q151 88 157 138T164 232Q164 279 149 310T84 343Q70 345 70 357Q70 362 73 366T84 371Q133 373 148 404T164 482Q164 525 158 576T151 675Q151 720
162 758T205 820T296 848Q305 849 310 843T315 829Q315 822 311 816T296 809Q233 805 212 778T191 708Q191 665 202 611T214 502Q214 489 213 477T210 453Q206 428 191 403T150 363Q140 357 151 352Q175 339 190 321T210 278Q212 266 213 254T214 229Q214 174 203
117T191 13Q191 -31 212 -60T296 -95Q306 -96 311 -102T316 -116Q316 -123 311 -129T296 -134Z" />
<glyph unicode="|" glyph-name="bar" horiz-adv-x="204" d="M102 -87Q80 -87 80 -65V778Q80 788 86 794T102 801Q111 801 117 795T124 778V-65Q124 -87 102 -87Z" />
<glyph unicode="}" glyph-name="braceright" horiz-adv-x="339" d="M43 -135Q34 -136 29 -130T24 -116Q24 -108 28 -103T43 -96Q106 -92 127 -65T148 5Q148 49 137 102T125 211Q125 224 126 236T129 260Q134 285 149 310T188 350Q197 356 188 361Q164 375 149
392T129 435Q127 447 126 459T125 484Q125 540 136 597T148 700Q148 744 127 774T43 808Q33 809 29 815T24 829Q24 837 28 842T43 847Q103 844 134 820T177 758T188 675Q188 626 182 575T175 480Q175 434 190 403T255 370Q269 368 269 356Q269 351 266 347T255
342Q206 340 191 309T175 231Q175 188 181 137T188 38Q188 -7 177 -45T135 -107T43 -135Z" />
<glyph unicode="~" glyph-name="asciitilde" horiz-adv-x="654" d="M478 294Q444 294 413 307T353 338T294 369T234 383Q205 383 174 366T106 304Q96 291 81 291Q72 291 63 297Q50 307 50 322Q50 333 57 340Q104 395 148 416T233 437Q282 437 325 417T405 376Q426
364 444 358T478 351Q498 351 515 362T552 400Q561 412 575 412Q583 412 591 407Q604 397 604 382Q604 373 598 365Q570 325 543 309T478 294Z" />
<glyph unicode="&#xa0;" glyph-name="uni00A0" horiz-adv-x="250" />
<glyph unicode="&#xa1;" glyph-name="exclamdown" horiz-adv-x="267" d="M133 420Q111 420 96 435T80 473Q80 495 95 510T133 526Q156 526 171 511T187 473Q187 451 172 436T133 420ZM133 -220Q117 -220 106 -209T96 -181L108 325Q108 336 115 343T133 350Q144
350 151 343T159 325L171 -181Q172 -197 161 -208T133 -220Z" />
<glyph unicode="&#xa2;" glyph-name="cent" horiz-adv-x="529" d="M270 -86Q261 -86 255 -80T249 -65V41Q249 48 241 50Q177 63 133 101T67 192T45 304Q45 369 70 422T140 512T241 558Q249 560 249 567V673Q249 682 255 688T270 694Q279 694 285 688T291 673V571Q291
562 300 562Q396 556 453 486Q487 446 487 411Q487 396 480 383Q464 357 435 357Q412 357 398 372T383 407Q383 427 398 443Q404 449 398 456Q377 480 356 490T300 502Q291 502 291 493V114Q291 105 294 105Q333 105 368 122T432 171Q441 182 454 182Q465 182 472
175Q483 164 483 148Q483 135 476 127Q442 90 394 68T294 46Q291 46 291 37V-65Q291 -73 285 -79T270 -86ZM239 113Q240 113 240 113T242 112Q249 112 249 121V489Q249 499 241 497Q180 483 143 432T106 304Q106 234 143 183T239 113Z" />
<glyph unicode="&#xa3;" glyph-name="sterling" horiz-adv-x="603" d="M424 -31Q385 -31 356 -20T304 6T258 32T209 44Q189 44 162 33Q159 32 157 31T153 28Q143 21 131 13T105 -3Q97 -7 92 -7Q75 -7 65 10Q62 18 62 25Q62 45 78 55Q149 103 176 140T203 211Q203
227 198 242T185 273Q182 279 175 279H65Q56 279 50 285T44 300Q44 309 50 315T65 321H143Q148 321 150 324T149 332Q127 366 109 405T90 495Q90 541 111 587T179 663T300 694Q358 694 404 668T477 595Q487 578 487 557Q487 535 474 518T438 501Q415 501 402 516T389
550Q389 568 401 580Q407 586 403 592Q386 613 358 625T297 638Q230 638 191 598T152 488Q152 437 170 399T210 327Q215 321 221 321H389Q398 321 404 315T410 300Q410 291 404 285T389 279H251Q239 279 245 268Q253 252 257 236T262 202Q262 179 253 152T222 93L219
90Q217 88 217 84Q217 79 225 79Q249 79 270 71T313 53T361 35T423 27Q443 27 466 43T508 85Q516 97 530 97Q537 97 544 92Q559 82 559 65Q559 57 554 49Q530 12 495 -9T424 -31Z" />
<glyph unicode="&#xa4;" glyph-name="currency" horiz-adv-x="526" d="M60 153Q54 161 54 170Q54 179 60 185L114 241Q120 247 115 254Q100 276 92 302T83 357Q83 386 91 412T115 460Q120 468 114 473L60 528Q54 536 54 545Q54 554 60 560Q68 566 77 566Q86 566
92 560L146 505Q152 500 159 504Q205 537 263 537Q320 537 366 504Q374 500 379 505L434 560Q442 566 451 566Q460 566 466 560Q472 553 472 543Q472 534 466 528L411 473Q406 468 410 460Q443 414 443 357Q443 328 435 302T411 253Q407 246 412 240L466 185Q472
178 472 168Q472 159 466 153Q459 147 449 147Q440 147 434 153L380 208Q375 214 367 209Q321 176 263 176Q205 176 159 209Q152 214 146 208L92 153Q85 147 75 147Q66 147 60 153ZM263 221Q300 221 330 239T379 289T398 357Q398 394 380 424T331 473T263 492Q226
492 196 474T147 425T128 357Q128 320 146 289T195 240T263 221Z" />
<glyph unicode="&#xa5;" glyph-name="yen" horiz-adv-x="701" d="M258 -9Q245 -10 235 -1T224 24Q224 39 234 49T258 57Q270 56 283 55T310 53H312Q319 53 319 61V153Q319 162 310 162H128Q118 162 112 168T105 184Q105 194 111 200T128 207H310Q319 207 319 216V280Q319
289 310 289H128Q118 289 112 295T105 311Q105 321 111 327T128 334H287Q299 334 293 345L125 654Q121 661 114 660L75 657Q61 656 51 665T40 689Q40 703 50 713T74 722Q104 720 126 719T167 717Q187 717 209 718T260 722Q274 724 284 714T295 689Q295 675 284
666T259 657L204 662H202Q198 662 197 659T197 652L346 362Q348 357 352 357T358 362L506 652Q507 654 507 657Q507 662 502 662Q486 662 471 661T441 657Q427 656 417 665T406 689Q406 703 416 713T440 722Q470 720 492 719T533 717Q553 717 575 718T626 722Q640
724 650 714T661 689Q661 675 650 666T625 657L587 660H585Q579 660 576 655L405 345Q404 343 404 340Q404 334 411 334H574Q583 334 589 328T596 311Q596 302 590 296T574 289H392Q383 289 383 280V216Q383 207 392 207H574Q583 207 589 201T596 184Q596 175 590
169T574 162H392Q383 162 383 153V61Q383 53 390 53Q404 53 417 54T444 57Q458 59 468 49T479 24Q479 9 469 0T444 -9Q415 -6 393 -5T351 -3Q331 -3 309 -4T258 -9Z" />
<glyph unicode="&#xa6;" glyph-name="brokenbar" horiz-adv-x="154" d="M77 429Q67 429 61 435T54 451V776Q54 785 60 792T77 799Q87 799 93 792T100 776V451Q100 442 94 436T77 429ZM77 -85Q67 -85 61 -79T54 -63V262Q54 271 60 278T77 285Q87 285 93 278T100
262V-63Q100 -72 94 -78T77 -85Z" />
<glyph unicode="&#xa7;" glyph-name="section" horiz-adv-x="502" d="M262 -43Q146 -43 80 43Q61 68 61 97Q61 120 73 135T107 151Q129 151 140 136T152 104Q152 86 140 75Q134 69 139 63Q142 59 145 56T151 50Q173 32 202 23T262 14Q295 14 323 24T370 56T388
108Q388 142 364 162T302 197T222 223T141 253T79 299T55 372Q55 388 58 406Q64 438 83 461T131 495Q142 500 134 507Q118 524 108 546T97 599Q97 619 103 643T124 691T169 732T243 755Q249 756 255 756T267 756Q345 756 409 700Q425 687 432 671T440 638Q440 618
428 604T394 589Q374 589 362 603T350 634Q350 644 355 654Q360 662 354 667Q347 674 338 680Q322 691 304 696T269 701Q240 701 214 688T171 653T155 601Q155 597 155 593T157 583Q162 556 185 539T241 511T310 487T377 458T428 412T448 339Q448 263 380 231Q371
226 380 220Q409 202 427 176T446 111Q446 60 418 26T348 -26T262 -43ZM329 247Q358 255 371 275T389 331Q391 366 373 386T323 419T256 443T186 470Q179 474 174 471Q146 461 131 439T115 384Q115 353 133 333T182 298T247 273T318 248Q326 246 329 247Z" />
<glyph unicode="&#xa8;" glyph-name="dieresis" horiz-adv-x="356" d="M261 606Q244 606 232 618T220 647Q220 664 232 676T261 688Q278 688 290 676T302 647Q302 630 290 618T261 606ZM95 606Q79 606 67 618T54 647Q54 664 66 676T95 688Q112 688 124 676T136
647Q136 630 124 618T95 606Z" />
<glyph unicode="&#xa9;" glyph-name="copyright" horiz-adv-x="874" d="M437 -9Q356 -9 286 21T162 104T78 228T48 380Q48 461 78 531T161 655T285 739T437 769Q518 769 588 739T712 656T796 532T826 380Q826 299 796 229T713 105T589 21T437 -9ZM437 31Q509 31
572 58T683 133T759 244T786 380Q786 452 759 515T684 626T573 702T437 729Q365 729 302 702T191 627T115 516T88 380Q88 308 115 245T190 134T301 58T437 31ZM443 147Q383 147 333 178T254 261T224 376Q224 440 253 491T333 573T443 604Q527 604 586 549Q618 517
618 492Q618 476 607 465T580 454Q562 454 553 466T543 492Q543 502 547 509Q551 516 547 522Q528 542 499 550T443 559Q394 559 356 535T295 470T272 376Q272 325 294 284T355 219T443 195Q486 195 522 214T582 269Q588 279 599 279Q605 279 612 274Q622 267 622
252Q622 243 618 238Q586 195 540 171T443 147Z" />
<glyph unicode="&#xaa;" glyph-name="ordfeminine" horiz-adv-x="307" d="M118 541Q86 541 66 559T46 605Q46 640 70 660T132 681Q162 681 198 667Q205 664 205 672V691Q205 723 187 742T142 761Q124 761 109 754Q104 751 107 746Q111 734 104 723T82 712Q71 712
64 720T57 739Q57 750 65 760Q90 791 137 791Q185 791 211 765T237 691V576Q237 570 243 570Q247 570 250 570T256 572Q259 573 264 573Q279 571 279 557Q279 550 274 545T260 541Q249 543 232 545Q223 545 216 550T207 563V566Q207 570 205 571T200 570Q184 557
163 549T118 541ZM118 571Q146 572 165 580T202 608Q205 611 205 615V627Q205 632 201 635Q191 641 176 646T134 652Q107 652 92 640T76 605Q76 591 88 581T118 571Z" />
<glyph unicode="&#xab;" glyph-name="guillemotleft" horiz-adv-x="476" d="M438 144Q431 139 424 139Q414 139 406 147L250 316Q235 334 235 357Q235 379 250 397L406 566Q414 574 424 574Q431 574 438 569Q447 563 447 552Q447 545 443 540L322 363Q318 357
322 351L443 173Q447 168 447 161Q447 150 438 144ZM237 144Q230 139 223 139Q213 139 205 147L49 316Q34 334 34 357Q34 379 49 397L205 566Q213 574 223 574Q230 574 237 569Q246 563 246 552Q246 545 242 540L121 363Q117 357 121 351L242 173Q246 168 246 161Q246
150 237 144Z" />
<glyph unicode="&#xac;" glyph-name="logicalnot" horiz-adv-x="632" d="M560 172Q550 172 544 178T537 194V371Q537 380 528 380H72Q63 380 57 386T50 402Q50 412 56 418T72 424H528Q551 424 566 409T582 370V194Q582 185 576 179T560 172Z" />
<glyph unicode="&#xad;" glyph-name="uni00AD" horiz-adv-x="716" d="M39 295Q29 295 22 302T14 320Q14 331 21 338T39 345H677Q688 345 695 338T702 320Q702 310 695 303T677 295H39Z" />
<glyph unicode="&#xae;" glyph-name="registered" horiz-adv-x="538" d="M269 376Q206 376 154 407T71 490T40 605Q40 669 71 720T154 803T269 834Q333 834 384 803T467 721T498 605Q498 542 467 490T385 407T269 376ZM269 401Q326 401 372 428T445 502T473 605Q473
662 446 708T372 781T269 809Q213 809 167 782T93 708T65 605Q65 549 92 503T166 429T269 401ZM172 472H171Q166 472 162 476T157 486Q157 492 162 496T172 500L182 499Q188 499 188 504V706Q188 711 182 711L172 710H171Q166 710 162 714T157 724Q157 729 161
733T171 738Q178 738 186 737T203 736H269Q315 736 340 715T366 657Q366 598 306 584Q300 581 303 576L352 502Q356 498 358 498Q362 498 365 498T373 499Q376 499 378 499T381 500H383Q388 500 392 496T396 486Q396 481 392 477T383 472Q376 472 368 473T351 474Q337
474 328 486L270 575Q266 579 262 579H222Q216 579 216 573V503Q216 498 222 498L239 500H240Q245 500 249 496T253 486Q253 480 249 476T239 472Q231 474 223 474T205 474Q197 474 189 474T172 472ZM222 606H273Q339 606 339 657Q339 708 273 709H222Q216 709
216 703V612Q216 606 222 606Z" />
<glyph unicode="&#xaf;" glyph-name="overscore" horiz-adv-x="381" d="M83 606Q71 606 63 614T54 636Q54 648 62 656T83 665H297Q310 665 318 657T327 636Q327 623 319 615T297 606H83Z" />
<glyph unicode="&#xb0;" glyph-name="degree" horiz-adv-x="324" d="M162 538Q116 538 83 571T50 650Q50 697 83 730T162 763Q209 763 241 730T274 650Q274 604 242 571T162 538ZM162 571Q194 571 217 594T241 650Q241 683 218 706T162 730Q130 730 107 707T83
650Q83 618 106 595T162 571Z" />
<glyph unicode="&#xb1;" glyph-name="plusminus" horiz-adv-x="606" d="M303 171Q292 171 285 178T277 196V389Q277 398 268 398H76Q65 398 58 405T50 424Q50 435 57 442T76 449H268Q277 449 277 458V651Q277 662 284 669T303 677Q314 677 321 670T329 651V458Q329
449 338 449H530Q541 449 548 442T556 424Q556 413 549 406T530 398H338Q329 398 329 389V196Q329 186 322 179T303 171ZM76 37Q65 37 58 44T50 63Q50 74 57 81T76 88H530Q541 88 548 81T556 63Q556 52 549 45T530 37H76Z" />
<glyph unicode="&#xb2;" glyph-name="uni00B2" horiz-adv-x="365" d="M73 451Q61 451 53 460T45 480Q49 516 70 545T119 594T176 622Q222 636 240 653T258 701Q258 735 238 753T180 771Q121 771 102 731Q100 726 105 723Q119 714 119 698Q119 688 111 679T89 669Q75
669 67 680T59 707Q59 725 68 744Q85 776 114 791T176 806Q217 806 251 784T294 718Q295 714 295 710T295 702Q295 672 280 652T242 619T192 592Q157 575 125 554T85 494V492Q85 487 91 487H263Q268 487 268 491Q268 500 267 507T266 520V522Q266 530 272 535T285
541Q294 541 300 535T305 520L302 480Q301 468 293 460T273 451H73Z" />
<glyph unicode="&#xb3;" glyph-name="uni00B3" horiz-adv-x="343" d="M166 448Q120 448 89 469T48 527Q47 532 47 537T46 546Q46 563 54 574T78 585Q92 585 100 576T108 555Q108 537 91 530Q86 527 87 522Q96 499 116 490T166 481Q201 481 227 499T253 544Q253
559 248 574T223 600T157 612Q141 614 141 629Q141 643 157 645Q248 650 248 709Q248 736 225 754T170 773Q145 773 125 764T93 734Q91 729 96 726Q110 718 110 701Q110 691 103 682T81 672Q67 672 59 682T50 709Q50 714 50 718T52 726Q63 763 94 784T170 806Q209
806 234 791T272 753T285 709Q285 679 269 663T229 635Q226 634 226 632T230 629Q258 622 273 601T289 547Q289 504 254 476T166 448Z" />
<glyph unicode="&#xb4;" glyph-name="acute" horiz-adv-x="251" d="M60 614Q54 620 54 629Q54 637 60 643L147 741Q154 751 168 751Q180 751 189 742Q197 732 197 722Q197 708 186 699L88 614Q82 608 74 608Q66 608 60 614Z" />
<glyph unicode="&#xb5;" glyph-name="uni00B5" horiz-adv-x="665" d="M154 -214Q141 -214 132 -205T122 -182V443Q122 453 113 451L66 448Q53 447 44 455T35 477Q35 490 44 498T65 505Q89 503 102 503T131 501Q154 501 169 486T185 447V150Q185 115 200 95T236
66T276 55T302 52Q350 52 395 83T474 170Q477 176 477 181V443Q477 453 468 451L421 448Q408 447 399 455T390 477Q390 490 399 498T420 505Q444 503 457 503T486 501Q509 501 524 486T540 447V54Q540 45 550 45Q561 46 572 48T593 51Q607 53 617 44T627 20Q627
6 617 -3T593 -11Q579 -9 563 -7T531 -3Q509 -2 493 13T477 51V82Q477 88 474 89T466 86Q395 -11 302 -11Q273 -11 246 -4T196 16Q192 18 190 18Q185 18 185 10V-182Q185 -195 176 -204T154 -214Z" />
<glyph unicode="&#xb6;" glyph-name="paragraph" horiz-adv-x="443" d="M235 -51Q226 -51 226 -42V383Q226 392 217 392Q172 394 135 417T76 477T54 561Q54 607 78 647T142 710Q173 727 205 733T270 740Q300 740 328 737T381 728Q389 726 389 719V-42Q389 -51
380 -51H350Q341 -51 341 -42V673Q341 682 332 682H271Q262 682 262 673V-42Q262 -51 253 -51H235Z" />
<glyph unicode="&#xb7;" glyph-name="middot" horiz-adv-x="216" d="M108 299Q84 299 67 315T50 357Q50 380 67 397T108 414Q132 414 149 397T166 357Q166 332 149 316T108 299Z" />
<glyph unicode="&#xb8;" glyph-name="cedilla" horiz-adv-x="301" d="M39 -168Q29 -162 35 -151Q41 -140 52 -144Q69 -151 85 -154T117 -157Q149 -157 170 -144T191 -106Q191 -86 175 -75T129 -63Q126 -63 123 -63T116 -65Q111 -66 107 -67T100 -67Q85 -59 90
-45L118 18Q122 27 132 27Q138 27 141 23T142 13L124 -43Q146 -38 162 -38Q200 -38 223 -57T247 -109Q247 -152 214 -175T137 -199Q112 -199 87 -192T39 -168Z" />
<glyph unicode="&#xb9;" glyph-name="uni00B9" horiz-adv-x="296" d="M92 447H90Q83 447 78 453T72 466Q72 474 78 480T92 485Q113 482 134 482Q140 482 140 488V746Q140 754 133 750L101 734L94 731H92Q78 731 72 742Q70 746 70 749Q70 760 82 767L152 801Q154
802 159 802Q167 802 172 797T178 784V487Q178 481 184 482Q195 483 205 483T224 485H226Q234 485 239 480T244 466Q244 458 238 452T224 447Q193 450 160 450Q122 450 92 447Z" />
<glyph unicode="&#xba;" glyph-name="ordmasculine" horiz-adv-x="324" d="M162 538Q116 538 83 571T50 650Q50 697 83 730T162 763Q209 763 241 730T274 650Q274 604 242 571T162 538ZM162 571Q194 571 217 594T241 650Q241 683 218 706T162 730Q130 730 107
707T83 650Q83 618 106 595T162 571Z" />
<glyph unicode="&#xbb;" glyph-name="guillemotright" horiz-adv-x="477" d="M38 144Q30 150 30 160Q30 168 34 173L155 351Q159 357 155 363L34 540Q30 545 30 553Q30 563 38 569Q46 574 53 574Q63 574 71 566L227 397Q242 379 242 357Q242 334 227 316L71 147Q63
139 53 139Q46 139 38 144ZM240 144Q231 150 231 161Q231 168 235 173L356 351Q360 357 356 363L235 540Q231 545 231 552Q231 563 240 569Q247 574 254 574Q264 574 272 566L428 397Q443 379 443 357Q443 334 428 316L272 147Q264 139 254 139Q247 139 240 144Z"
/>
<glyph unicode="&#xbc;" glyph-name="onequarter" horiz-adv-x="677" d="M49 -42Q38 -34 38 -22Q38 -16 43 -8L555 732Q563 743 575 743Q581 743 589 738Q600 732 600 719Q600 713 595 706L83 -35Q75 -46 62 -46Q54 -46 49 -42ZM58 379H55Q47 379 41 384T35 400Q35
409 41 414T55 420Q66 420 77 419T101 418V671L64 653Q58 651 55 651Q42 651 36 662Q34 668 34 672Q34 686 46 690L113 723Q119 725 122 725Q130 725 136 719T143 705V418Q154 418 164 418T183 420H186Q194 420 200 415T206 400Q206 390 199 384T183 379Q153 382
119 382Q85 382 58 379ZM499 -13H497Q488 -13 482 -7T476 8Q476 18 482 23T496 29Q507 29 516 28T534 27V90H401Q387 90 382 103Q380 109 380 112Q380 119 385 126L519 322Q527 336 543 336Q557 336 565 327T574 306V127H624Q632 127 637 122T643 109Q643 90 624
90H574V27Q582 27 590 27T609 29H612Q620 29 626 24T632 8Q632 -1 626 -7T609 -13Q595 -11 582 -10T554 -9Q541 -9 527 -10T499 -13ZM432 127H534V278L432 127Z" />
<glyph unicode="&#xbd;" glyph-name="onehalf" horiz-adv-x="693" d="M45 -42Q34 -34 34 -22Q34 -16 39 -8L551 732Q559 743 571 743Q577 743 585 738Q596 732 596 719Q596 713 591 706L79 -35Q71 -46 58 -46Q50 -46 45 -42ZM87 379Q77 378 70 384T63 400Q63 408
69 414T84 420Q94 420 103 419T123 418Q129 418 129 424V663Q129 672 122 668L93 654Q87 651 82 651Q69 651 64 662Q61 667 61 672Q61 683 73 690L141 723Q144 725 150 725Q158 725 164 720T171 705V424Q171 418 177 418Q186 418 194 418T212 420H214Q223 420 228
414T234 400Q234 390 228 384T211 379Q181 382 147 382Q114 382 87 379ZM439 -6Q426 -6 417 3T409 26Q414 71 444 103T537 163Q576 180 595 194T614 237Q614 269 595 285T542 301Q515 301 498 292T471 265Q468 260 473 257Q485 248 485 233Q485 222 477 213T455
203Q439 203 431 214T423 241Q423 260 432 279Q448 310 477 325T538 340Q577 340 611 318T654 253Q655 249 655 245T655 235Q655 206 641 187T604 155T556 130Q522 114 493 95T454 41Q451 34 459 34H617Q623 34 622 41V58Q621 61 621 66Q623 86 643 86Q653 86 659
80T665 62L662 25Q661 12 652 3T631 -6H439Z" />
<glyph unicode="&#xbe;" glyph-name="threequarters" horiz-adv-x="702" d="M83 -42Q72 -34 72 -22Q72 -16 77 -8L589 732Q597 743 609 743Q615 743 623 738Q634 732 634 719Q634 713 629 706L117 -35Q109 -46 96 -46Q88 -46 83 -42ZM146 379Q100 379 69 400T30
458Q29 463 29 467T28 476Q28 494 37 505T62 517Q75 517 83 510T92 491Q93 488 93 483Q93 468 77 459Q72 456 74 451Q82 435 100 426T146 417Q163 417 181 423T213 442T227 475Q227 489 223 502T200 525T138 537Q130 537 125 543T119 556Q119 574 138 574Q222 579
222 633Q222 657 201 674T150 691Q127 691 109 682T80 658Q77 653 83 650Q96 642 96 626Q96 614 88 604T65 594Q49 594 40 605T31 633Q31 642 34 651Q45 687 76 708T150 729Q198 729 230 702T263 633Q263 611 251 591T216 560Q209 557 216 554Q267 535 267 477Q267
435 233 407T146 379ZM533 -13H531Q522 -13 516 -7T510 8Q510 16 516 22T531 29Q539 29 546 28T562 27Q568 27 568 33V84Q568 90 562 90H435Q421 90 416 103Q414 109 414 111Q414 118 419 125L552 322Q561 336 579 336Q591 336 599 328T608 306V133Q608 127 614
127H658Q677 127 677 109Q677 101 672 96T658 90H614Q608 90 608 84V33Q608 27 614 27Q622 27 629 27T643 29H645Q654 29 660 23T666 8Q666 -1 660 -7T643 -13Q629 -11 616 -10T588 -9Q575 -9 561 -10T533 -13ZM475 127H562Q568 127 568 133V265Q568 269 566 270T561
267L471 134Q466 127 475 127Z" />
<glyph unicode="&#xbf;" glyph-name="questiondown" horiz-adv-x="569" d="M297 420Q275 420 260 435T244 473Q244 495 259 510T297 526Q319 526 334 511T350 473Q350 451 335 436T297 420ZM288 -226Q217 -226 170 -198T99 -127T76 -36Q76 1 89 33Q104 71 127
93T176 132T224 170T261 227T274 323Q273 334 281 342T299 350Q310 350 318 342T327 323Q327 264 314 226T281 162T237 118T192 82T155 39T134 -24Q133 -27 133 -30T133 -37Q133 -64 147 -95T195 -147T285 -169Q338 -169 377 -140T424 -66V-64Q424 -59 418 -55Q393
-41 393 -13Q393 7 407 21T441 35Q469 35 482 17T495 -29Q495 -58 481 -92T441 -156T376 -206T288 -226Z" />
<glyph unicode="&#xc0;" glyph-name="Agrave" horiz-adv-x="858" d="M430 807L331 891Q321 901 321 914Q321 925 329 935Q338 944 350 944Q364 944 371 934L458 836Q463 831 463 822Q463 812 458 807Q452 801 444 801Q436 801 430 807ZM58 -12Q44 -13 34 -4T23
21Q23 36 33 46T58 54Q68 53 79 52T100 50H102Q107 50 111 56L404 710Q412 725 429 725Q445 725 453 710L747 56Q751 50 756 50Q767 50 778 51T800 54Q814 56 824 46T835 21Q835 6 825 -3T800 -12Q743 -6 707 -6Q668 -6 614 -12Q601 -13 591 -4T580 21Q580 36 590
46T614 54Q627 53 641 52T670 49H672Q682 49 677 59L619 189Q616 196 609 196H249Q243 196 239 189L181 59Q180 57 180 54Q180 49 186 49Q200 49 215 51T244 54Q258 56 268 46T278 21Q278 6 268 -3T244 -12Q186 -6 151 -6Q111 -6 58 -12ZM281 256H577Q589 256 584
267L435 600Q434 606 429 606Q426 606 423 600L274 267Q273 265 273 263Q273 256 281 256Z" />
<glyph unicode="&#xc1;" glyph-name="Aacute" horiz-adv-x="858" d="M395 807Q389 813 389 822Q389 830 395 836L482 934Q489 944 503 944Q515 944 524 935Q532 925 532 915Q532 901 521 892L423 807Q417 801 409 801Q401 801 395 807ZM58 -12Q44 -13 34 -4T23
21Q23 36 33 46T58 54Q68 53 79 52T100 50H102Q107 50 111 56L404 710Q412 725 429 725Q445 725 453 710L747 56Q751 50 756 50Q767 50 778 51T800 54Q814 56 824 46T835 21Q835 6 825 -3T800 -12Q743 -6 707 -6Q668 -6 614 -12Q601 -13 591 -4T580 21Q580 36 590
46T614 54Q627 53 641 52T670 49H672Q682 49 677 59L619 189Q616 196 609 196H249Q243 196 239 189L181 59Q180 57 180 54Q180 49 186 49Q200 49 215 51T244 54Q258 56 268 46T278 21Q278 6 268 -3T244 -12Q186 -6 151 -6Q111 -6 58 -12ZM281 256H577Q589 256 584
267L435 600Q434 606 429 606Q426 606 423 600L274 267Q273 265 273 263Q273 256 281 256Z" />
<glyph unicode="&#xc2;" glyph-name="Acircumflex" horiz-adv-x="858" d="M307 814Q305 812 300 812Q293 812 290 817Q288 819 288 824Q288 831 292 835L404 938Q417 948 429 948Q441 948 454 938L566 835Q575 826 568 817Q561 807 551 814L435 893Q429 898 423
893L307 814ZM58 -12Q44 -13 34 -4T23 21Q23 36 33 46T58 54Q68 53 79 52T100 50H102Q107 50 111 56L404 710Q412 725 429 725Q445 725 453 710L747 56Q751 50 756 50Q767 50 778 51T800 54Q814 56 824 46T835 21Q835 6 825 -3T800 -12Q743 -6 707 -6Q668 -6 614
-12Q601 -13 591 -4T580 21Q580 36 590 46T614 54Q627 53 641 52T670 49H672Q682 49 677 59L619 189Q616 196 609 196H249Q243 196 239 189L181 59Q180 57 180 54Q180 49 186 49Q200 49 215 51T244 54Q258 56 268 46T278 21Q278 6 268 -3T244 -12Q186 -6 151 -6Q111
-6 58 -12ZM281 256H577Q589 256 584 267L435 600Q434 606 429 606Q426 606 423 600L274 267Q273 265 273 263Q273 256 281 256Z" />
<glyph unicode="&#xc3;" glyph-name="Atilde" horiz-adv-x="858" d="M514 817Q487 817 463 829T417 854T372 866Q358 866 343 859T311 834Q301 824 291 824Q283 824 275 830Q265 837 265 849Q265 856 270 863Q296 891 321 902T369 913Q398 913 423 902T470 878Q494
864 514 864Q535 864 552 884Q561 893 571 893Q578 893 585 888Q594 879 594 867Q594 858 588 852Q553 817 514 817ZM58 -12Q44 -13 34 -4T23 21Q23 36 33 46T58 54Q68 53 79 52T100 50H102Q107 50 111 56L404 710Q412 725 429 725Q445 725 453 710L747 56Q751
50 756 50Q767 50 778 51T800 54Q814 56 824 46T835 21Q835 6 825 -3T800 -12Q743 -6 707 -6Q668 -6 614 -12Q601 -13 591 -4T580 21Q580 36 590 46T614 54Q627 53 641 52T670 49H672Q682 49 677 59L619 189Q616 196 609 196H249Q243 196 239 189L181 59Q180 57
180 54Q180 49 186 49Q200 49 215 51T244 54Q258 56 268 46T278 21Q278 6 268 -3T244 -12Q186 -6 151 -6Q111 -6 58 -12ZM281 256H577Q589 256 584 267L435 600Q434 606 429 606Q426 606 423 600L274 267Q273 265 273 263Q273 256 281 256Z" />
<glyph unicode="&#xc4;" glyph-name="Adieresis" horiz-adv-x="858" d="M346 822Q330 822 318 834T305 863Q305 880 317 892T346 904Q363 904 375 892T387 863Q387 846 375 834T346 822ZM512 822Q495 822 483 834T471 863Q471 880 483 892T512 904Q529 904 541
892T553 863Q553 846 541 834T512 822ZM58 -12Q44 -13 34 -4T23 21Q23 36 33 46T58 54Q68 53 79 52T100 50H102Q107 50 111 56L404 710Q412 725 429 725Q445 725 453 710L747 56Q751 50 756 50Q767 50 778 51T800 54Q814 56 824 46T835 21Q835 6 825 -3T800 -12Q743
-6 707 -6Q668 -6 614 -12Q601 -13 591 -4T580 21Q580 36 590 46T614 54Q627 53 641 52T670 49H672Q682 49 677 59L619 189Q616 196 609 196H249Q243 196 239 189L181 59Q180 57 180 54Q180 49 186 49Q200 49 215 51T244 54Q258 56 268 46T278 21Q278 6 268 -3T244
-12Q186 -6 151 -6Q111 -6 58 -12ZM281 256H577Q589 256 584 267L435 600Q434 606 429 606Q426 606 423 600L274 267Q273 265 273 263Q273 256 281 256Z" />
<glyph unicode="&#xc5;" glyph-name="Aring" horiz-adv-x="858" d="M429 807Q396 807 376 826T356 878Q356 910 376 929T429 948Q462 948 482 929T502 878Q502 846 482 827T429 807ZM429 831Q449 831 461 844T474 878Q474 899 462 911T429 924Q410 924 397 911T384
878Q384 857 396 844T429 831ZM58 -12Q44 -13 34 -4T23 21Q23 36 33 46T58 54Q68 53 79 52T100 50H102Q107 50 111 56L404 710Q412 725 429 725Q445 725 453 710L747 56Q751 50 756 50Q767 50 778 51T800 54Q814 56 824 46T835 21Q835 6 825 -3T800 -12Q743 -6
707 -6Q668 -6 614 -12Q601 -13 591 -4T580 21Q580 36 590 46T614 54Q627 53 641 52T670 49H672Q682 49 677 59L619 189Q616 196 609 196H249Q243 196 239 189L181 59Q180 57 180 54Q180 49 186 49Q200 49 215 51T244 54Q258 56 268 46T278 21Q278 6 268 -3T244
-12Q186 -6 151 -6Q111 -6 58 -12ZM281 256H577Q589 256 584 267L435 600Q434 606 429 606Q426 606 423 600L274 267Q273 265 273 263Q273 256 281 256Z" />
<glyph unicode="&#xc6;" glyph-name="AE" horiz-adv-x="970" d="M58 -12Q44 -13 34 -4T23 21Q23 36 33 46T58 54Q69 53 80 52T103 49Q111 49 114 56L389 666Q400 689 421 702T466 716H838Q860 716 875 701T892 664Q893 642 895 620T898 579Q900 566 890 556T865
545Q851 545 841 555T831 580L837 645V647Q837 655 828 655H520Q511 655 511 646V412Q511 403 520 403H779Q793 403 802 394T811 371Q811 358 802 349T779 340H520Q511 340 511 331V69Q511 60 520 60H828Q836 60 836 67Q836 86 835 103T831 135Q830 149 840 159T865
170Q879 170 889 160T898 136Q897 117 895 96T892 51Q891 29 876 14T838 -1H484Q465 -1 445 -4T407 -9Q392 -11 381 -2T370 24Q370 38 379 47T402 56Q410 56 420 55T440 53H442Q449 53 449 61V187Q449 196 440 196H249Q243 196 239 189L179 56Q178 54 178 52T177
50Q176 49 176 48Q193 49 210 51T244 54Q258 56 268 46T278 21Q278 7 268 -3T244 -12Q224 -10 201 -8T156 -6H146Q124 -6 101 -8T58 -12ZM282 259H440Q449 259 449 268V633Q449 641 444 641Q441 641 438 635L275 270Q274 268 274 266Q274 259 282 259Z" />
<glyph unicode="&#xc7;" glyph-name="Ccedilla" horiz-adv-x="762" d="M282 -168Q272 -162 278 -151Q284 -140 295 -144Q312 -151 328 -154T360 -157Q392 -157 413 -144T434 -106Q434 -86 418 -75T372 -63Q369 -63 366 -63T359 -65Q354 -66 350 -67T343 -67Q328
-59 333 -45L346 -15Q347 -14 347 -11Q347 -5 340 -4Q261 14 198 65T98 193T61 357Q61 434 88 500T164 617T276 696T413 725Q549 725 644 636Q664 617 679 596T694 549Q694 525 678 508T638 491Q613 491 598 508T583 548Q583 567 594 581Q600 587 594 593Q562 630
513 646T413 663Q332 663 267 623T165 514T127 357Q127 271 164 203T267 95T413 55Q485 55 546 87T647 179Q651 186 657 189T671 192Q680 192 687 186Q702 174 702 156Q702 146 695 135Q645 65 571 27T413 -12Q406 -12 400 -12T386 -11H384Q378 -11 375 -18L371
-31Q371 -32 371 -32T370 -35Q370 -42 379 -41Q386 -40 392 -40T405 -39Q443 -39 466 -58T490 -109Q490 -152 457 -175T380 -199Q355 -199 330 -192T282 -168Z" />
<glyph unicode="&#xc8;" glyph-name="Egrave" horiz-adv-x="656" d="M325 807L226 891Q216 901 216 914Q216 925 224 935Q233 944 245 944Q259 944 266 934L353 836Q358 831 358 822Q358 812 353 807Q347 801 339 801Q331 801 325 807ZM93 -11Q77 -13 66 -3T54
24Q54 41 65 50T93 58Q100 57 108 56T124 54H126Q133 54 133 62V652Q133 660 126 660Q116 660 106 658T88 655Q75 655 65 665T54 689Q54 706 65 716T93 724Q113 722 135 719T176 716H524Q546 716 562 701T580 662L586 578Q588 563 577 552T551 541Q537 541 527
551T516 575Q516 591 518 608T521 641V643Q521 651 512 651H208Q199 651 199 642V412Q199 403 208 403H465Q479 403 488 394T497 371Q497 358 488 349T465 340H208Q199 340 199 331V71Q199 62 208 62H512Q522 62 521 72Q520 89 518 107T516 138Q516 152 526 162T551
172Q566 172 577 161T586 135L580 51Q579 29 563 13T524 -3H170Q151 -3 131 -6T93 -11Z" />
<glyph unicode="&#xc9;" glyph-name="Eacute" horiz-adv-x="656" d="M267 807Q261 813 261 822Q261 830 267 836L354 934Q361 944 375 944Q387 944 396 935Q404 925 404 915Q404 901 393 892L295 807Q289 801 281 801Q273 801 267 807ZM93 -11Q77 -13 66 -3T54
24Q54 41 65 50T93 58Q100 57 108 56T124 54H126Q133 54 133 62V652Q133 660 126 660Q116 660 106 658T88 655Q75 655 65 665T54 689Q54 706 65 716T93 724Q113 722 135 719T176 716H524Q546 716 562 701T580 662L586 578Q588 563 577 552T551 541Q537 541 527
551T516 575Q516 591 518 608T521 641V643Q521 651 512 651H208Q199 651 199 642V412Q199 403 208 403H465Q479 403 488 394T497 371Q497 358 488 349T465 340H208Q199 340 199 331V71Q199 62 208 62H512Q522 62 521 72Q520 89 518 107T516 138Q516 152 526 162T551
172Q566 172 577 161T586 135L580 51Q579 29 563 13T524 -3H170Q151 -3 131 -6T93 -11Z" />
<glyph unicode="&#xca;" glyph-name="Ecircumflex" horiz-adv-x="656" d="M202 814Q199 812 194 812Q188 812 185 816Q183 819 183 824Q183 832 187 835L299 938Q312 948 324 948Q337 948 350 938L461 834Q466 831 466 824Q466 821 463 816Q460 812 455 812Q450
812 447 814L330 893Q324 898 318 893L202 814ZM93 -11Q77 -13 66 -3T54 24Q54 41 65 50T93 58Q100 57 108 56T124 54H126Q133 54 133 62V652Q133 660 126 660Q116 660 106 658T88 655Q75 655 65 665T54 689Q54 706 65 716T93 724Q113 722 135 719T176 716H524Q546
716 562 701T580 662L586 578Q588 563 577 552T551 541Q537 541 527 551T516 575Q516 591 518 608T521 641V643Q521 651 512 651H208Q199 651 199 642V412Q199 403 208 403H465Q479 403 488 394T497 371Q497 358 488 349T465 340H208Q199 340 199 331V71Q199 62
208 62H512Q522 62 521 72Q520 89 518 107T516 138Q516 152 526 162T551 172Q566 172 577 161T586 135L580 51Q579 29 563 13T524 -3H170Q151 -3 131 -6T93 -11Z" />
<glyph unicode="&#xcb;" glyph-name="Edieresis" horiz-adv-x="656" d="M239 822Q223 822 211 834T198 863Q198 880 210 892T239 904Q256 904 268 892T280 863Q280 846 268 834T239 822ZM405 822Q388 822 376 834T364 863Q364 880 376 892T405 904Q422 904 434
892T446 863Q446 846 434 834T405 822ZM93 -11Q77 -13 66 -3T54 24Q54 41 65 50T93 58Q100 57 108 56T124 54H126Q133 54 133 62V652Q133 660 126 660Q116 660 106 658T88 655Q75 655 65 665T54 689Q54 706 65 716T93 724Q113 722 135 719T176 716H524Q546 716
562 701T580 662L586 578Q588 563 577 552T551 541Q537 541 527 551T516 575Q516 591 518 608T521 641V643Q521 651 512 651H208Q199 651 199 642V412Q199 403 208 403H465Q479 403 488 394T497 371Q497 358 488 349T465 340H208Q199 340 199 331V71Q199 62 208
62H512Q522 62 521 72Q520 89 518 107T516 138Q516 152 526 162T551 172Q566 172 577 161T586 135L580 51Q579 29 563 13T524 -3H170Q151 -3 131 -6T93 -11Z" />
<glyph unicode="&#xcc;" glyph-name="Igrave" horiz-adv-x="374" d="M188 807L89 891Q79 901 79 914Q79 925 87 935Q96 944 108 944Q122 944 129 934L216 836Q221 831 221 822Q221 812 216 807Q210 801 202 801Q194 801 188 807ZM89 -12Q75 -13 65 -4T54 21Q54
36 64 46T89 54Q102 53 116 52T146 49Q155 49 155 58V655Q155 664 146 664Q131 663 117 662T89 659Q75 658 65 667T54 692Q54 707 64 717T89 725Q124 721 145 720T187 719Q210 719 231 720T285 725Q299 727 309 717T320 692Q320 677 310 668T285 659Q272 661 258
662T230 664Q221 664 221 655V58Q221 50 229 50Q244 50 258 51T285 54Q299 56 309 46T320 21Q320 6 310 -3T285 -12Q249 -8 228 -7T187 -6Q165 -6 144 -7T89 -12Z" />
<glyph unicode="&#xcd;" glyph-name="Iacute" horiz-adv-x="374" d="M153 807Q147 813 147 822Q147 830 153 836L240 934Q247 944 261 944Q273 944 282 935Q290 925 290 915Q290 901 279 892L181 807Q175 801 167 801Q159 801 153 807ZM89 -12Q75 -13 65 -4T54
21Q54 36 64 46T89 54Q102 53 116 52T146 49Q155 49 155 58V655Q155 664 146 664Q131 663 117 662T89 659Q75 658 65 667T54 692Q54 707 64 717T89 725Q124 721 145 720T187 719Q210 719 231 720T285 725Q299 727 309 717T320 692Q320 677 310 668T285 659Q272
661 258 662T230 664Q221 664 221 655V58Q221 50 229 50Q244 50 258 51T285 54Q299 56 309 46T320 21Q320 6 310 -3T285 -12Q249 -8 228 -7T187 -6Q165 -6 144 -7T89 -12Z" />
<glyph unicode="&#xce;" glyph-name="Icircumflex" horiz-adv-x="391" d="M74 814Q72 812 67 812Q60 812 57 817Q55 819 55 824Q55 831 59 835L171 938Q184 948 196 948Q208 948 221 938L333 835Q342 826 335 817Q328 807 318 814L202 893Q196 898 190 893L74
814ZM98 -12Q84 -13 74 -4T63 21Q63 36 73 46T98 54Q111 53 125 52T155 49Q164 49 164 58V655Q164 664 155 664Q140 663 126 662T98 659Q84 658 74 667T63 692Q63 707 73 717T98 725Q133 721 154 720T196 719Q219 719 240 720T294 725Q308 727 318 717T329 692Q329
677 319 668T294 659Q281 661 267 662T239 664Q230 664 230 655V58Q230 49 239 49Q253 51 267 52T294 54Q308 56 318 46T329 21Q329 6 319 -3T294 -12Q258 -8 237 -7T196 -6Q174 -6 153 -7T98 -12Z" />
<glyph unicode="&#xcf;" glyph-name="Idieresis" horiz-adv-x="374" d="M104 822Q88 822 76 834T63 863Q63 880 75 892T104 904Q121 904 133 892T145 863Q145 846 133 834T104 822ZM270 822Q253 822 241 834T229 863Q229 880 241 892T270 904Q287 904 299 892T311
863Q311 846 299 834T270 822ZM89 -12Q75 -13 65 -4T54 21Q54 36 64 46T89 54Q102 53 116 52T146 49Q155 49 155 58V655Q155 664 146 664Q131 663 117 662T89 659Q75 658 65 667T54 692Q54 707 64 717T89 725Q124 721 145 720T187 719Q210 719 231 720T285 725Q299
727 309 717T320 692Q320 677 310 668T285 659Q272 661 258 662T230 664Q221 664 221 655V58Q221 50 229 50Q244 50 258 51T285 54Q299 56 309 46T320 21Q320 6 310 -3T285 -12Q249 -8 228 -7T187 -6Q165 -6 144 -7T89 -12Z" />
<glyph unicode="&#xd0;" glyph-name="Eth" horiz-adv-x="737" d="M92 -11Q77 -13 66 -3T54 24Q54 41 65 51T92 59L132 53H134Q142 53 142 62V330Q142 339 133 339H81Q72 339 66 345T59 361Q59 371 65 377T81 383H133Q142 383 142 392V652Q142 660 135 660Q123
660 111 658T87 655Q74 655 64 665T54 689Q54 706 65 716T92 724Q112 722 134 719T176 716H309Q394 716 463 689T582 608Q626 559 650 495T674 357Q674 244 630 164T502 40T303 -3H170Q151 -3 131 -5T92 -11ZM217 62H303Q337 62 378 68T460 92T535 142T589 227T610
357Q610 407 594 459T543 554T450 624T309 651H217Q208 651 208 642V392Q208 383 217 383H383Q393 383 399 377T406 361Q406 352 400 346T383 339H217Q208 339 208 330V71Q208 62 217 62Z" />
<glyph unicode="&#xd1;" glyph-name="Ntilde" horiz-adv-x="795" d="M489 815Q462 815 438 827T392 852T347 864Q333 864 318 857T286 832Q276 822 266 822Q258 822 250 828Q240 835 240 847Q240 854 245 861Q271 889 296 900T344 911Q373 911 398 900T445 876Q469
862 489 862Q510 862 527 882Q536 891 546 891Q553 891 560 886Q569 877 569 865Q569 856 563 850Q528 815 489 815ZM88 -12Q75 -13 65 -3T54 21Q54 35 64 45T88 54Q97 53 107 52T129 50H131Q138 50 138 59V650Q138 661 128 659L94 653Q78 651 66 662T54 689Q54
706 66 716T94 724Q107 722 121 720T149 716Q177 715 200 702T236 669L594 113Q597 108 600 108Q605 108 605 116V656Q605 665 596 665L534 659Q520 658 510 667T499 692Q499 707 509 717T534 725Q570 721 590 720T627 719Q647 719 666 720T720 725Q734 727 744
717T754 692Q754 678 744 668T720 659Q711 661 701 661T679 663H677Q670 663 670 654V35Q670 18 658 6T628 -6Q601 -6 585 17L214 587Q211 592 208 592Q203 592 203 584V57Q203 48 212 48L274 54Q288 56 298 46T309 21Q309 6 299 -3T274 -12Q238 -8 218 -7T181
-6Q162 -6 143 -7T88 -12Z" />
<glyph unicode="&#xd2;" glyph-name="Ograve" horiz-adv-x="812" d="M407 807L308 891Q298 901 298 914Q298 925 306 935Q315 944 327 944Q341 944 348 934L435 836Q440 831 440 822Q440 812 435 807Q429 801 421 801Q413 801 407 807ZM406 -12Q333 -12 269 16T157
95T82 213T54 356Q54 433 81 499T157 617T269 696T406 725Q479 725 542 697T654 617T730 500T758 356Q758 280 731 213T655 96T543 17T406 -12ZM406 55Q488 55 552 94T653 201T690 356Q690 443 653 511T552 618T406 657Q324 657 260 618T158 511T121 356Q121 270
158 202T260 95T406 55Z" />
<glyph unicode="&#xd3;" glyph-name="Oacute" horiz-adv-x="812" d="M372 807Q366 813 366 822Q366 830 372 836L459 934Q466 944 480 944Q492 944 501 935Q509 925 509 915Q509 901 498 892L400 807Q394 801 386 801Q378 801 372 807ZM406 -12Q333 -12 269 16T157
95T82 213T54 356Q54 433 81 499T157 617T269 696T406 725Q479 725 542 697T654 617T730 500T758 356Q758 280 731 213T655 96T543 17T406 -12ZM406 55Q488 55 552 94T653 201T690 356Q690 443 653 511T552 618T406 657Q324 657 260 618T158 511T121 356Q121 270
158 202T260 95T406 55Z" />
<glyph unicode="&#xd4;" glyph-name="Ocircumflex" horiz-adv-x="812" d="M284 814Q280 812 277 812Q272 812 267 817Q265 819 265 824Q265 832 269 836L381 938Q393 948 406 948Q419 948 431 938L543 836Q552 825 545 817Q538 809 528 814L412 893Q406 898 400
893L284 814ZM406 -12Q333 -12 269 16T157 95T82 213T54 356Q54 433 81 499T157 617T269 696T406 725Q479 725 542 697T654 617T730 500T758 356Q758 280 731 213T655 96T543 17T406 -12ZM406 55Q488 55 552 94T653 201T690 356Q690 443 653 511T552 618T406 657Q324
657 260 618T158 511T121 356Q121 270 158 202T260 95T406 55Z" />
<glyph unicode="&#xd5;" glyph-name="Otilde" horiz-adv-x="812" d="M491 789Q464 789 440 801T394 826T349 838Q335 838 320 831T288 806Q278 796 268 796Q260 796 252 802Q242 809 242 821Q242 828 247 835Q273 863 298 874T346 885Q375 885 400 874T447 850Q471
836 491 836Q512 836 529 856Q538 865 548 865Q555 865 562 860Q571 851 571 839Q571 830 565 824Q530 789 491 789ZM406 -12Q333 -12 269 16T157 95T82 213T54 356Q54 433 81 499T157 617T269 696T406 725Q479 725 542 697T654 617T730 500T758 356Q758 280 731
213T655 96T543 17T406 -12ZM406 55Q488 55 552 94T653 201T690 356Q690 443 653 511T552 618T406 657Q324 657 260 618T158 511T121 356Q121 270 158 202T260 95T406 55Z" />
<glyph unicode="&#xd6;" glyph-name="Odieresis" horiz-adv-x="812" d="M323 822Q307 822 295 834T282 863Q282 880 294 892T323 904Q340 904 352 892T364 863Q364 846 352 834T323 822ZM489 822Q472 822 460 834T448 863Q448 880 460 892T489 904Q506 904 518
892T530 863Q530 846 518 834T489 822ZM406 -12Q333 -12 269 16T157 95T82 213T54 356Q54 433 81 499T157 617T269 696T406 725Q479 725 542 697T654 617T730 500T758 356Q758 280 731 213T655 96T543 17T406 -12ZM406 55Q488 55 552 94T653 201T690 356Q690 443
653 511T552 618T406 657Q324 657 260 618T158 511T121 356Q121 270 158 202T260 95T406 55Z" />
<glyph unicode="&#xd7;" glyph-name="multiply" horiz-adv-x="554" d="M62 142Q55 149 55 161Q55 173 62 180L233 351Q239 357 233 363L62 533Q55 541 55 552Q55 564 62 571Q72 579 81 579Q92 579 100 571L271 401Q277 395 283 401L454 571Q462 579 473 579Q484
579 492 571Q500 563 500 552Q500 543 492 533L321 363Q315 357 321 351L492 180Q500 172 500 161Q500 150 492 142Q485 135 473 135Q461 135 454 142L283 312Q277 318 271 312L100 142Q93 135 81 135Q70 135 62 142Z" />
<glyph unicode="&#xd8;" glyph-name="Oslash" horiz-adv-x="812" d="M157 -16Q147 -10 147 3Q147 11 151 16L181 61Q186 68 180 74Q122 125 88 198T54 356Q54 433 81 499T157 617T269 696T406 725Q454 725 498 712T582 676Q586 674 588 674Q591 674 595 678L624
722Q631 732 643 732Q650 732 655 728Q665 721 665 709Q665 701 661 696L631 651Q626 644 632 638Q690 587 724 515T758 356Q758 280 731 213T655 96T543 17T406 -12Q358 -12 314 1T230 37Q223 42 218 35L188 -10Q181 -20 169 -20Q166 -20 163 -19T157 -16ZM215
128Q217 126 220 126Q224 126 227 130L549 609Q551 613 551 615Q551 619 546 622Q484 657 406 657Q324 657 260 618T158 511T121 356Q121 286 146 228T215 128ZM406 55Q488 55 552 94T653 201T690 356Q690 426 666 484T597 584Q595 586 592 586Q588 586 585 582L264
103Q259 95 266 91Q297 74 332 65T406 55Z" />
<glyph unicode="&#xd9;" glyph-name="Ugrave" horiz-adv-x="746" d="M374 807L275 891Q265 901 265 914Q265 925 273 935Q282 944 294 944Q308 944 315 934L402 836Q407 831 407 822Q407 812 402 807Q396 801 388 801Q380 801 374 807ZM373 -12Q259 -12 194 61T129
260V655Q129 663 122 663Q109 663 97 662T73 659Q59 658 49 667T38 692Q38 707 48 717T73 725Q109 721 129 720T166 719Q186 719 205 720T259 725Q273 727 283 717T293 692Q293 678 283 668T259 659Q246 661 232 662T202 664Q193 664 193 655V259Q193 244 195 219T207
164T236 109T289 66T373 49Q425 49 458 66T510 109T539 165T550 219T553 259V655Q553 664 544 664Q529 663 515 662T487 659Q474 658 464 668T453 692Q453 706 463 716T487 725Q523 721 543 720T580 719Q600 719 619 720T673 725Q687 727 697 717T708 692Q708 677
698 668T673 659Q663 661 651 661T626 663H624Q617 663 617 655V260Q617 133 552 61T373 -12Z" />
<glyph unicode="&#xda;" glyph-name="Uacute" horiz-adv-x="746" d="M339 807Q333 813 333 822Q333 830 339 836L426 934Q433 944 447 944Q459 944 468 935Q476 925 476 915Q476 901 465 892L367 807Q361 801 353 801Q345 801 339 807ZM373 -12Q259 -12 194 61T129
260V655Q129 663 122 663Q109 663 97 662T73 659Q59 658 49 667T38 692Q38 707 48 717T73 725Q104 722 126 721T166 719Q187 719 209 720T259 725Q273 727 283 717T293 692Q293 678 283 668T259 659Q246 661 232 662T202 664Q193 664 193 655V259Q193 244 195 219T207
164T236 109T289 66T373 49Q425 49 458 66T510 109T539 165T550 219T553 259V655Q553 664 544 664Q529 663 515 662T487 659Q474 658 464 668T453 692Q453 706 463 716T487 725Q518 722 540 721T580 719Q601 719 622 720T673 725Q687 727 697 717T708 692Q708 677
698 668T673 659Q663 661 651 661T626 663H624Q617 663 617 655V260Q617 133 552 61T373 -12Z" />
<glyph unicode="&#xdb;" glyph-name="Ucircumflex" horiz-adv-x="746" d="M251 814Q247 812 244 812Q239 812 234 818Q232 820 232 825Q232 832 236 836L348 939Q359 948 373 948Q388 948 398 939L510 836Q518 826 512 818Q506 809 495 814L379 893Q373 898 367
893L251 814ZM373 -12Q259 -12 194 61T129 260V655Q129 663 122 663Q109 663 97 662T73 659Q59 658 49 667T38 692Q38 707 48 717T73 725Q109 721 129 720T166 719Q186 719 205 720T259 725Q273 727 283 717T293 692Q293 678 283 668T259 659Q246 661 232 662T202
664Q193 664 193 655V259Q193 244 195 219T207 164T236 109T289 66T373 49Q425 49 458 66T510 109T539 165T550 219T553 259V655Q553 664 544 664Q529 663 515 662T487 659Q474 658 464 668T453 692Q453 706 463 716T487 725Q523 721 543 720T580 719Q600 719 619
720T673 725Q687 727 697 717T708 692Q708 677 698 668T673 659Q663 661 651 661T626 663H624Q617 663 617 655V260Q617 133 552 61T373 -12Z" />
<glyph unicode="&#xdc;" glyph-name="Udieresis" horiz-adv-x="746" d="M290 822Q274 822 262 834T249 863Q249 880 261 892T290 904Q307 904 319 892T331 863Q331 846 319 834T290 822ZM456 822Q439 822 427 834T415 863Q415 880 427 892T456 904Q473 904 485
892T497 863Q497 846 485 834T456 822ZM373 -12Q259 -12 194 61T129 260V655Q129 663 122 663Q109 663 97 662T73 659Q59 658 49 667T38 692Q38 707 48 717T73 725Q104 722 126 721T166 719Q187 719 209 720T259 725Q273 727 283 717T293 692Q293 678 283 668T259
659Q246 661 232 662T202 664Q193 664 193 655V259Q193 244 195 219T207 164T236 109T289 66T373 49Q425 49 458 66T510 109T539 165T550 219T553 259V655Q553 664 544 664Q529 663 515 662T487 659Q474 658 464 668T453 692Q453 706 463 716T487 725Q518 722 540
721T580 719Q601 719 622 720T673 725Q687 727 697 717T708 692Q708 677 698 668T673 659Q663 661 651 661T626 663H624Q617 663 617 655V260Q617 133 552 61T373 -12Z" />
<glyph unicode="&#xdd;" glyph-name="Yacute" horiz-adv-x="668" d="M300 807Q294 813 294 822Q294 830 300 836L387 934Q394 944 408 944Q420 944 429 935Q437 925 437 915Q437 901 426 892L328 807Q322 801 314 801Q306 801 300 807ZM237 -12Q223 -13 213 -4T202
21Q202 36 212 46T237 54Q250 53 265 52T295 49H297Q304 49 304 57V284Q304 290 303 289L109 656Q106 663 99 663Q88 662 78 662T58 659Q45 658 35 667T24 692Q24 707 34 717T58 725Q89 722 111 721T151 719Q172 719 194 720T244 725Q258 727 268 717T279 692Q279
677 269 668T244 659Q231 661 216 662T185 664H183Q179 664 178 661T178 654L329 367Q331 362 335 362T341 367L492 654Q493 656 493 659Q493 664 487 664Q471 664 455 663T424 659Q410 658 400 667T389 692Q389 707 399 717T424 725Q455 722 477 721T517 719Q538
719 560 720T610 725Q624 727 634 717T644 692Q644 677 634 668T610 659Q600 661 590 661T569 663Q562 663 559 656L368 294Q365 290 365 283V57Q365 49 372 49Q387 49 403 51T433 54Q447 56 457 46T467 21Q467 7 457 -3T433 -12Q401 -8 379 -7T335 -6Q311 -6 288
-7T237 -12Z" />
<glyph unicode="&#xde;" glyph-name="Thorn" horiz-adv-x="669" d="M89 -11Q76 -12 65 -3T54 21Q54 36 64 46T89 54Q98 53 108 52T130 50H132Q139 50 139 59V651Q139 660 132 660Q120 660 109 659T89 656Q76 655 65 665T54 689Q54 704 64 714T89 722Q124 718 144
717T182 716Q202 716 221 717T275 722Q289 724 299 714T309 689Q309 675 299 665T275 656L214 662Q205 662 205 653V591Q205 582 214 582H360Q486 582 556 526T626 370Q626 268 557 213T362 157H214Q205 157 205 148V57Q205 48 214 48L275 54Q289 56 299 46T309
21Q309 7 299 -2T275 -11Q239 -8 219 -7T182 -6Q162 -6 143 -7T89 -11ZM214 220H371Q564 220 564 370Q564 444 515 481T371 519H214Q205 519 205 510V229Q205 220 214 220Z" />
<glyph unicode="&#xdf;" glyph-name="germandbls" horiz-adv-x="647" d="M72 -12Q59 -13 49 -3T38 21Q38 35 48 45T72 54Q86 53 101 52T131 49H133Q140 49 140 57V416Q140 425 131 425H54Q41 425 32 434T23 457Q23 471 32 479T54 488H131Q140 488 140 497Q145
595 196 657T329 729Q335 730 341 730T353 730Q417 730 454 691T491 598Q491 570 480 540T444 482Q404 435 404 411Q404 389 436 368Q459 354 489 336T547 292T594 232T613 152Q613 106 593 69T536 10T455 -12Q381 -12 334 43Q321 57 316 72T310 101Q310 121 321
134T354 147Q374 147 386 134T399 103Q399 94 394 82Q391 76 394 70Q403 56 422 49T458 42Q498 42 523 74T549 152Q549 195 530 223T482 272T424 310T374 348T349 396Q348 402 348 408T347 419Q347 443 357 464T394 519Q409 539 417 562T425 607Q425 636 408 656T353
677Q283 677 244 624T204 479V58Q204 50 211 50Q224 50 235 51T258 54Q272 56 282 46T293 21Q293 6 283 -3T258 -12Q200 -6 165 -6Q125 -6 72 -12Z" />
<glyph unicode="&#xe0;" glyph-name="agrave" horiz-adv-x="562" d="M242 613L143 698Q133 707 133 720Q133 733 141 741Q150 750 162 750Q175 750 184 740L269 642Q275 636 275 628Q275 619 269 613Q264 608 256 608Q250 608 242 613ZM198 -11Q133 -11 92 26T50
122Q50 196 99 236T226 277Q292 277 370 245Q372 244 375 244Q381 244 381 251V301Q381 371 344 409T251 448Q233 448 214 444T174 429Q166 426 170 417Q174 409 174 398Q174 379 160 363T122 346Q99 346 85 363T71 401Q71 426 87 443Q113 473 152 489T237 506Q336
506 389 453T443 301V54Q443 45 452 45Q465 46 477 49T500 53Q513 53 521 44T530 21Q530 6 519 -3T494 -11Q481 -8 466 -6T435 -3Q412 -3 397 13T381 51Q381 52 381 52T380 52Q377 52 370 47Q335 19 295 4T198 -11ZM198 49Q257 51 297 68T377 127Q381 132 381 138V173Q381
180 375 183Q354 195 320 207T230 220Q174 220 142 194T109 122Q109 90 134 70T198 49Z" />
<glyph unicode="&#xe1;" glyph-name="aacute" horiz-adv-x="562" d="M235 613Q229 619 229 628Q229 636 235 642L322 740Q329 750 343 750Q355 750 364 741Q372 731 372 721Q372 707 361 698L263 613Q257 607 249 607Q241 607 235 613ZM198 -11Q133 -11 92 26T50
122Q50 196 99 236T226 277Q292 277 370 245Q372 244 375 244Q381 244 381 251V301Q381 371 344 409T251 448Q233 448 214 444T174 429Q166 426 170 417Q174 409 174 398Q174 379 160 363T122 346Q99 346 85 363T71 401Q71 426 87 443Q113 473 152 489T237 506Q336
506 389 453T443 301V54Q443 45 452 45Q465 46 477 49T500 53Q513 53 521 44T530 21Q530 6 519 -3T494 -11Q481 -8 466 -6T435 -3Q412 -3 397 13T381 51Q381 52 381 52T380 52Q377 52 370 47Q335 19 295 4T198 -11ZM198 49Q257 51 297 68T377 127Q381 132 381 138V173Q381
180 375 183Q354 195 320 207T230 220Q174 220 142 194T109 122Q109 90 134 70T198 49Z" />
<glyph unicode="&#xe2;" glyph-name="acircumflex" horiz-adv-x="562" d="M134 620Q130 618 127 618Q122 618 117 624Q115 626 115 631Q115 638 119 642L231 745Q242 754 256 754Q271 754 281 745L393 642Q401 632 395 624Q389 615 378 620L262 700Q256 705 250
700L134 620ZM198 -11Q133 -11 92 26T50 122Q50 196 99 236T226 277Q292 277 370 245Q372 244 375 244Q381 244 381 251V301Q381 371 344 409T251 448Q233 448 214 444T174 429Q166 426 170 417Q174 409 174 398Q174 379 160 363T122 346Q99 346 85 363T71 401Q71
426 87 443Q113 473 152 489T237 506Q336 506 389 453T443 301V54Q443 45 452 45Q465 46 477 49T500 53Q513 53 521 44T530 21Q530 6 519 -3T494 -11Q481 -8 466 -6T435 -3Q412 -3 397 13T381 51Q381 52 381 52T380 52Q377 52 370 47Q335 19 295 4T198 -11ZM198
49Q257 51 297 68T377 127Q381 132 381 138V173Q381 180 375 183Q354 195 320 207T230 220Q174 220 142 194T109 122Q109 90 134 70T198 49Z" />
<glyph unicode="&#xe3;" glyph-name="atilde" horiz-adv-x="562" d="M347 617Q320 617 296 629T250 654T205 666Q192 666 177 659T145 634Q135 624 124 624Q115 624 109 630Q98 638 98 649Q98 657 104 663Q130 691 155 702T203 713Q231 713 256 702T303 678Q330
663 347 663Q367 663 385 684Q394 693 404 693Q411 693 418 688Q427 679 427 667Q427 657 421 651Q386 617 347 617ZM198 -11Q133 -11 92 26T50 122Q50 196 99 236T226 277Q292 277 370 245Q372 244 375 244Q381 244 381 251V301Q381 371 344 409T251 448Q233 448
214 444T174 429Q166 426 170 417Q174 409 174 398Q174 379 160 363T122 346Q99 346 85 363T71 401Q71 426 87 443Q113 473 152 489T237 506Q336 506 389 453T443 301V54Q443 45 452 45Q465 46 477 49T500 53Q513 53 521 44T530 21Q530 6 519 -3T494 -11Q481 -8
466 -6T435 -3Q412 -3 397 13T381 51Q381 52 381 52T380 52Q377 52 370 47Q335 19 295 4T198 -11ZM198 49Q257 51 297 68T377 127Q381 132 381 138V173Q381 180 375 183Q354 195 320 207T230 220Q174 220 142 194T109 122Q109 90 134 70T198 49Z" />
<glyph unicode="&#xe4;" glyph-name="adieresis" horiz-adv-x="562" d="M170 622Q154 622 142 634T129 663Q129 680 141 692T170 704Q187 704 199 692T211 663Q211 646 199 634T170 622ZM336 622Q319 622 307 634T295 663Q295 680 307 692T336 704Q353 704 365
692T377 663Q377 646 365 634T336 622ZM198 -11Q133 -11 92 26T50 122Q50 196 99 236T226 277Q292 277 370 245Q372 244 375 244Q381 244 381 251V301Q381 371 344 409T251 448Q233 448 214 444T174 429Q166 426 170 417Q174 409 174 398Q174 379 160 363T122 346Q99
346 85 363T71 401Q71 426 87 443Q113 473 152 489T237 506Q336 506 389 453T443 301V54Q443 45 452 45Q465 46 477 49T500 53Q513 53 521 44T530 21Q530 6 519 -3T494 -11Q481 -8 466 -6T435 -3Q412 -3 397 13T381 51Q381 52 381 52T380 52Q377 52 370 47Q335
19 295 4T198 -11ZM198 49Q257 51 297 68T377 127Q381 132 381 138V173Q381 180 375 183Q354 195 320 207T230 220Q174 220 142 194T109 122Q109 90 134 70T198 49Z" />
<glyph unicode="&#xe5;" glyph-name="aring" horiz-adv-x="562" d="M256 583Q223 583 203 602T183 654Q183 686 203 705T256 724Q289 724 309 705T329 654Q329 622 309 603T256 583ZM256 607Q276 607 288 620T301 654Q301 675 289 687T256 700Q237 700 224 687T211
654Q211 633 223 620T256 607ZM198 -11Q133 -11 92 26T50 122Q50 196 99 236T226 277Q292 277 370 245Q372 244 375 244Q381 244 381 251V301Q381 371 344 409T251 448Q233 448 214 444T174 429Q166 426 170 417Q174 409 174 398Q174 379 160 363T122 346Q99 346
85 363T71 401Q71 426 87 443Q113 473 152 489T237 506Q336 506 389 453T443 301V54Q443 45 452 45Q465 46 477 49T500 53Q513 53 521 44T530 21Q530 6 519 -3T494 -11Q481 -8 466 -6T435 -3Q412 -3 397 13T381 51Q381 52 381 52T380 52Q377 52 370 47Q335 19 295
4T198 -11ZM198 49Q257 51 297 68T377 127Q381 132 381 138V173Q381 180 375 183Q354 195 320 207T230 220Q174 220 142 194T109 122Q109 90 134 70T198 49Z" />
<glyph unicode="&#xe6;" glyph-name="ae" horiz-adv-x="909" d="M199 -11Q134 -11 92 26T50 122Q50 196 99 236T226 277Q292 277 370 245Q372 244 375 244Q381 244 381 251V301Q381 368 346 407T251 447Q232 447 213 443T173 429Q166 426 170 417Q174 409 174
398Q174 379 160 363T123 346Q109 346 96 354T77 375Q71 389 71 401Q71 430 96 453T159 491T238 506Q305 506 351 482T421 411Q426 399 433 410Q465 454 514 480T623 506Q723 506 786 444T861 273Q863 252 848 236T810 220H453Q444 220 444 217Q444 212 445 208Q454
162 481 126T547 69T633 48Q671 48 706 64T769 111Q782 124 797 124Q806 124 815 118Q828 108 828 94Q828 83 821 76Q786 34 737 12T633 -11Q571 -11 518 17T431 93Q425 101 418 93Q373 42 321 16T199 -11ZM453 280H788Q799 280 796 291Q784 369 740 410T623 451Q550
451 503 407T444 288Q444 280 453 280ZM199 49Q258 51 298 68T377 125Q381 130 381 136V172Q381 179 375 182Q354 194 320 207T230 220Q175 220 143 194T110 122Q110 90 134 70T199 49Z" />
<glyph unicode="&#xe7;" glyph-name="ccedilla" horiz-adv-x="550" d="M176 -168Q166 -162 172 -151Q178 -140 189 -144Q206 -151 222 -154T254 -157Q286 -157 307 -144T328 -106Q328 -86 312 -75T266 -63Q263 -63 260 -63T253 -65Q248 -66 244 -67T237 -67Q222
-59 227 -45L241 -13Q242 -12 242 -9Q242 -3 235 -2Q174 14 132 52T67 142T45 247Q45 320 78 378T167 471T295 506Q411 506 474 428Q488 412 498 393T508 354Q508 339 501 326Q485 300 456 300Q434 300 420 316T405 352Q405 369 417 384Q423 390 419 397Q400 426
365 437T295 449Q241 449 199 423T132 352T108 247Q108 191 134 146T205 75T306 49Q390 49 455 119Q467 129 478 129Q489 129 496 120Q506 110 506 95Q506 83 498 72Q461 32 411 11T308 -11Q301 -11 294 -11T280 -10H278Q273 -10 270 -17L265 -31Q265 -32 265 -32T264
-35Q264 -42 273 -41Q280 -40 286 -40T299 -39Q337 -39 360 -58T384 -109Q384 -152 351 -175T274 -199Q249 -199 224 -192T176 -168Z" />
<glyph unicode="&#xe8;" glyph-name="egrave" horiz-adv-x="577" d="M299 613L200 697Q190 707 190 720Q190 731 198 741Q207 750 219 750Q233 750 240 740L327 642Q332 637 332 628Q332 618 327 613Q321 607 313 607Q305 607 299 613ZM301 -11Q231 -11 174 24T82
117T48 247Q48 320 80 378T167 471T291 506Q391 506 454 444T529 273Q531 252 516 236T478 220H121Q110 220 113 210Q121 163 148 127T215 69T301 48Q339 48 374 64T437 111Q450 124 465 124Q474 124 483 118Q496 108 496 94Q496 83 489 76Q454 35 405 12T301 -11ZM121
280H456Q467 280 465 290Q452 369 408 410T291 451Q219 451 171 408T112 290V288Q112 280 121 280Z" />
<glyph unicode="&#xe9;" glyph-name="eacute" horiz-adv-x="577" d="M249 613Q243 619 243 628Q243 636 249 642L336 740Q343 750 357 750Q369 750 378 741Q386 731 386 721Q386 707 375 698L277 613Q271 607 263 607Q255 607 249 613ZM301 -11Q231 -11 174 24T82
117T48 247Q48 320 80 378T167 471T291 506Q391 506 454 444T529 273Q531 252 516 236T478 220H121Q110 220 113 210Q121 163 148 127T215 69T301 48Q339 48 374 64T437 111Q450 124 465 124Q474 124 483 118Q496 108 496 94Q496 83 489 76Q454 35 405 12T301 -11ZM121
280H456Q467 280 465 290Q452 369 408 410T291 451Q219 451 171 408T112 290V288Q112 280 121 280Z" />
<glyph unicode="&#xea;" glyph-name="ecircumflex" horiz-adv-x="577" d="M169 620Q165 618 162 618Q157 618 152 624Q150 626 150 631Q150 638 154 642L266 745Q277 754 291 754Q306 754 316 745L428 642Q436 632 430 624Q424 615 413 620L297 700Q291 705 285
700L169 620ZM301 -11Q231 -11 174 24T82 117T48 247Q48 320 80 378T167 471T291 506Q391 506 454 444T529 273Q531 252 516 236T478 220H121Q110 220 113 210Q121 163 148 127T215 69T301 48Q339 48 374 64T437 111Q450 124 465 124Q474 124 483 118Q496 108 496
94Q496 83 489 76Q454 35 405 12T301 -11ZM121 280H456Q467 280 465 290Q452 369 408 410T291 451Q219 451 171 408T112 290V288Q112 280 121 280Z" />
<glyph unicode="&#xeb;" glyph-name="edieresis" horiz-adv-x="577" d="M207 622Q191 622 179 634T166 663Q166 680 178 692T207 704Q224 704 236 692T248 663Q248 646 236 634T207 622ZM373 622Q356 622 344 634T332 663Q332 680 344 692T373 704Q390 704 402
692T414 663Q414 646 402 634T373 622ZM301 -11Q231 -11 174 24T82 117T48 247Q48 320 80 378T167 471T291 506Q391 506 454 444T529 273Q531 252 516 236T478 220H121Q110 220 113 210Q121 163 148 127T215 69T301 48Q339 48 374 64T437 111Q450 124 465 124Q474
124 483 118Q496 108 496 94Q496 83 489 76Q454 35 405 12T301 -11ZM121 280H456Q467 280 465 290Q452 369 408 410T291 451Q219 451 171 408T112 290V288Q112 280 121 280Z" />
<glyph unicode="&#xec;" glyph-name="igrave" horiz-adv-x="337" d="M160 613L61 698Q51 707 51 720Q51 733 59 741Q68 750 80 750Q93 750 102 740L187 642Q193 636 193 628Q193 619 187 613Q181 607 173 607Q166 607 160 613ZM89 -12Q75 -13 65 -4T54 21Q54 36
64 46T89 54Q100 53 111 52T135 49Q145 49 145 58V435Q145 444 136 444Q124 443 112 443T89 440Q75 439 65 448T54 473Q54 487 65 497T90 506Q112 505 125 503T155 501Q178 501 193 486T209 447V58Q209 49 219 49Q231 51 243 52T265 54Q279 56 289 46T299 21Q299
6 289 -3T265 -12Q245 -10 222 -8T177 -6Q156 -6 133 -8T89 -12Z" />
<glyph unicode="&#xed;" glyph-name="iacute" horiz-adv-x="333" d="M125 607Q118 614 118 622Q118 628 123 635L205 738Q213 749 228 749Q240 749 247 742Q256 733 256 720Q256 707 247 698L153 607Q146 602 139 602Q132 602 125 607ZM85 -12Q71 -13 61 -4T50
21Q50 36 60 46T85 54Q96 53 107 52T131 49Q141 49 141 58V435Q141 444 132 444Q120 443 108 443T85 440Q71 439 61 448T50 473Q50 487 61 497T86 506Q108 505 121 503T151 501Q174 501 189 486T205 447V58Q205 49 215 49Q227 51 239 52T261 54Q275 56 285 46T295
21Q295 6 285 -3T261 -12Q241 -10 218 -8T173 -6Q152 -6 129 -8T85 -12Z" />
<glyph unicode="&#xee;" glyph-name="icircumflex" horiz-adv-x="368" d="M67 620Q63 618 60 618Q55 618 50 624Q48 626 48 631Q48 638 52 642L164 745Q175 754 189 754Q204 754 214 745L326 642Q334 632 328 624Q322 615 311 620L195 700Q189 705 183 700L67
620ZM122 -12Q108 -13 98 -4T87 21Q87 36 97 46T122 54Q133 53 144 52T168 49Q178 49 178 58V435Q178 444 169 444Q157 443 145 443T122 440Q108 439 98 448T87 473Q87 487 98 497T123 506Q145 505 158 503T188 501Q211 501 226 486T242 447V58Q242 49 252 49Q264
51 276 52T298 54Q312 56 322 46T332 21Q332 6 322 -3T298 -12Q278 -10 255 -8T210 -6Q189 -6 166 -8T122 -12Z" />
<glyph unicode="&#xef;" glyph-name="idieresis" horiz-adv-x="333" d="M66 622Q50 622 38 634T25 663Q25 680 37 692T66 704Q83 704 95 692T107 663Q107 646 95 634T66 622ZM232 622Q215 622 203 634T191 663Q191 680 203 692T232 704Q249 704 261 692T273 663Q273
646 261 634T232 622ZM85 -12Q71 -13 61 -4T50 21Q50 36 60 46T85 54Q96 53 107 52T131 49Q141 49 141 58V435Q141 444 132 444Q120 443 108 443T85 440Q71 439 61 448T50 473Q50 487 61 497T86 506Q108 505 121 503T151 501Q174 501 189 486T205 447V58Q205 49
215 49Q227 51 239 52T261 54Q275 56 285 46T295 21Q295 6 285 -3T261 -12Q241 -10 218 -8T173 -6Q152 -6 129 -8T85 -12Z" />
<glyph unicode="&#xf0;" glyph-name="eth" horiz-adv-x="563" d="M276 -10Q200 -10 149 23T73 109T48 218Q48 312 78 368T157 450T258 475Q322 475 369 447T445 368Q448 363 450 363T450 370Q435 438 397 497T305 601Q299 607 292 602L141 511Q137 508 130 508Q117
508 111 519Q108 525 108 531Q108 544 118 550L249 628Q254 630 254 634T249 640Q221 657 190 670T127 692Q102 699 102 724Q102 738 113 747T138 753Q189 739 232 719T310 673Q316 669 322 673L422 732Q428 735 434 735Q447 735 453 724Q456 720 456 713Q456 701
445 693L363 643Q354 637 362 631Q440 558 473 467T507 290Q507 255 502 222T488 160Q463 78 408 34T276 -10ZM271 50Q337 50 379 90T435 204Q437 215 438 225T439 246Q439 289 422 328T369 392T275 417Q199 417 157 364T114 218Q114 172 135 134T192 73T271 50Z"
/>
<glyph unicode="&#xf1;" glyph-name="ntilde" horiz-adv-x="653" d="M398 617Q371 617 347 629T301 654T256 666Q242 666 227 659T195 634Q186 624 174 624Q166 624 159 629Q149 636 149 649Q149 656 154 663Q180 691 205 702T253 713Q282 713 307 702T354 678Q378
664 398 664Q419 664 436 684Q445 693 455 693Q462 693 469 688Q478 679 478 667Q478 657 472 651Q437 617 398 617ZM82 -11Q70 -12 61 -4T52 17Q52 30 61 39T82 46L126 43H128Q135 43 135 51V443Q135 453 126 451L81 448Q69 447 60 455T50 477Q50 490 59 499T80
506Q94 505 111 504T144 501Q167 500 182 484T198 446V408Q198 402 201 401T209 404Q317 506 408 506Q536 506 536 334V51Q536 41 546 43L588 46Q600 48 609 39T618 17Q618 4 609 -4T588 -11Q556 -8 538 -7T504 -6Q486 -6 468 -7T420 -11Q408 -12 399 -4T390 17Q390
30 399 39T420 46L463 43H465Q472 43 472 51V335Q472 388 454 413T396 438Q309 438 203 341Q198 336 198 329V51Q198 42 207 43L250 46Q262 48 271 39T280 17Q280 4 271 -4T250 -11Q218 -8 200 -7T166 -6Q148 -6 130 -7T82 -11Z" />
<glyph unicode="&#xf2;" glyph-name="ograve" horiz-adv-x="628" d="M304 613L205 697Q195 707 195 720Q195 731 203 741Q212 750 224 750Q238 750 245 740L332 642Q337 637 337 628Q337 618 332 613Q326 607 318 607Q310 607 304 613ZM314 -12Q241 -12 181 23T86
117T50 247Q50 319 85 377T181 471T314 506Q387 506 447 471T542 378T578 247Q578 176 543 117T447 23T314 -12ZM314 47Q371 47 416 73T488 145T515 247Q515 303 488 348T416 420T314 447Q258 447 212 421T140 349T113 247Q113 191 140 146T212 74T314 47Z" />
<glyph unicode="&#xf3;" glyph-name="oacute" horiz-adv-x="628" d="M269 613Q263 619 263 628Q263 636 269 642L356 740Q363 750 377 750Q389 750 398 741Q406 731 406 721Q406 707 395 698L297 613Q291 607 283 607Q275 607 269 613ZM314 -12Q241 -12 181 23T86
117T50 247Q50 319 85 377T181 471T314 506Q387 506 447 471T542 378T578 247Q578 176 543 117T447 23T314 -12ZM314 47Q371 47 416 73T488 145T515 247Q515 303 488 348T416 420T314 447Q258 447 212 421T140 349T113 247Q113 191 140 146T212 74T314 47Z" />
<glyph unicode="&#xf4;" glyph-name="ocircumflex" horiz-adv-x="628" d="M192 619Q190 617 185 617Q178 617 175 622Q173 624 173 629Q173 636 177 640L289 743Q301 753 314 753Q327 753 339 743L451 640Q460 631 453 622Q446 612 436 619L320 698Q314 703 308
698L192 619ZM314 -12Q241 -12 181 23T86 117T50 247Q50 319 85 377T181 471T314 506Q387 506 447 471T542 378T578 247Q578 176 543 117T447 23T314 -12ZM314 47Q371 47 416 73T488 145T515 247Q515 303 488 348T416 420T314 447Q258 447 212 421T140 349T113
247Q113 191 140 146T212 74T314 47Z" />
<glyph unicode="&#xf5;" glyph-name="otilde" horiz-adv-x="628" d="M397 615Q370 615 346 627T300 652T255 664Q241 664 226 657T194 632Q184 622 174 622Q166 622 158 628Q148 635 148 647Q148 654 153 661Q179 689 204 700T252 711Q281 711 306 700T353 676Q377
662 397 662Q418 662 435 682Q444 691 454 691Q461 691 468 686Q477 677 477 665Q477 655 471 649Q436 615 397 615ZM314 -12Q241 -12 181 23T86 117T50 247Q50 319 85 377T181 471T314 506Q387 506 447 471T542 378T578 247Q578 176 543 117T447 23T314 -12ZM314
47Q371 47 416 73T488 145T515 247Q515 303 488 348T416 420T314 447Q258 447 212 421T140 349T113 247Q113 191 140 146T212 74T314 47Z" />
<glyph unicode="&#xf6;" glyph-name="odieresis" horiz-adv-x="628" d="M231 622Q215 622 203 634T190 663Q190 680 202 692T231 704Q248 704 260 692T272 663Q272 646 260 634T231 622ZM397 622Q380 622 368 634T356 663Q356 680 368 692T397 704Q414 704 426
692T438 663Q438 646 426 634T397 622ZM314 -12Q241 -12 181 23T86 117T50 247Q50 319 85 377T181 471T314 506Q387 506 447 471T542 378T578 247Q578 176 543 117T447 23T314 -12ZM314 47Q371 47 416 73T488 145T515 247Q515 303 488 348T416 420T314 447Q258
447 212 421T140 349T113 247Q113 191 140 146T212 74T314 47Z" />
<glyph unicode="&#xf7;" glyph-name="divide" horiz-adv-x="614" d="M307 515Q286 515 271 529T256 566Q256 586 271 601T307 616Q328 616 343 601T358 566Q358 544 343 530T307 515ZM81 330Q70 330 62 338T54 357Q54 368 62 375T81 383H533Q544 383 552 376T560
357Q560 346 552 338T533 330H81ZM307 97Q286 97 271 111T256 148Q256 168 271 183T307 198Q328 198 343 183T358 148Q358 126 343 112T307 97Z" />
<glyph unicode="&#xf8;" glyph-name="oslash" horiz-adv-x="628" d="M138 -15Q129 -9 129 3Q129 10 132 16L145 37Q151 44 143 49Q100 84 75 136T50 247Q50 319 85 377T181 471T314 506Q346 506 375 499T431 479Q433 478 436 478Q441 478 444 482L458 504Q465
514 476 514Q483 514 490 509Q500 502 500 490Q500 487 499 484T496 478L483 457Q477 450 485 445Q528 410 553 358T578 247Q578 176 543 117T447 23T314 -12Q283 -12 253 -5T197 15Q195 16 192 16Q187 16 184 12L170 -9Q164 -19 151 -19Q143 -19 138 -15ZM177
100Q179 98 182 98Q186 98 189 102L401 417Q403 421 403 422Q403 428 397 429Q360 447 314 447Q258 447 212 421T140 349T113 247Q113 203 130 165T177 100ZM314 47Q371 47 416 73T488 145T515 247Q515 291 498 329T451 394Q449 396 446 396Q442 396 439 392L227
77Q225 73 225 72Q225 67 230 65Q249 57 270 52T314 47Z" />
<glyph unicode="&#xf9;" glyph-name="ugrave" horiz-adv-x="665" d="M271 612L172 699Q162 708 162 722Q162 734 170 742Q180 750 191 750Q204 750 213 741L299 642Q304 635 304 629Q304 620 298 614Q292 608 283 608Q275 608 271 612ZM302 -11Q222 -11 172 33T122
150V443Q122 453 113 451L66 448Q53 447 44 455T35 477Q35 490 44 498T65 505Q89 503 102 503T131 501Q154 501 169 486T185 447V150Q185 115 200 95T236 66T276 55T302 52Q350 52 395 83T474 170Q477 176 477 181V443Q477 453 468 451L421 448Q408 447 399 455T390
477Q390 490 399 498T420 505Q444 503 457 503T486 501Q509 501 524 486T540 447V54Q540 45 550 45Q561 46 572 48T593 51Q607 53 617 44T627 20Q627 6 617 -3T593 -11Q579 -9 563 -7T531 -3Q509 -2 493 13T477 51V82Q477 88 474 89T466 86Q395 -11 302 -11Z" />
<glyph unicode="&#xfa;" glyph-name="uacute" horiz-adv-x="665" d="M282 612Q277 608 269 608Q260 608 254 614Q249 621 249 628Q249 635 254 642L340 741Q349 750 362 750Q373 750 383 742Q391 732 391 721Q391 707 381 699L282 612ZM302 -11Q222 -11 172 34T122
150V443Q122 453 113 451L66 448Q53 447 44 455T35 477Q35 490 44 498T65 505Q89 503 102 503T131 501Q154 501 169 486T185 447V150Q185 115 200 95T236 66T276 55T302 52Q350 52 395 83T474 170Q477 176 477 181V443Q477 453 468 451L421 448Q408 447 399 455T390
477Q390 490 399 498T420 505Q444 503 457 503T486 501Q509 501 524 486T540 447V54Q540 45 550 45Q561 46 572 48T593 51Q607 53 617 44T627 20Q627 6 617 -3T593 -11Q579 -9 563 -7T531 -3Q509 -2 493 13T477 51V82Q477 88 474 89T466 86Q395 -11 302 -11Z" />
<glyph unicode="&#xfb;" glyph-name="ucircumflex" horiz-adv-x="665" d="M185 620Q181 618 178 618Q173 618 168 624Q166 626 166 631Q166 638 170 642L282 745Q293 754 307 754Q322 754 332 745L444 642Q452 632 446 624Q440 615 429 620L313 700Q307 705 301
700L185 620ZM302 -11Q222 -11 172 34T122 150V443Q122 453 113 451L66 448Q53 447 44 455T35 477Q35 490 44 498T65 505Q89 503 102 503T131 501Q154 501 169 486T185 447V150Q185 115 200 95T236 66T276 55T302 52Q350 52 395 83T474 170Q477 176 477 181V443Q477
453 468 451L421 448Q408 447 399 455T390 477Q390 490 399 498T420 505Q444 503 457 503T486 501Q509 501 524 486T540 447V54Q540 45 550 45Q561 46 572 48T593 51Q607 53 617 44T627 20Q627 6 617 -3T593 -11Q579 -9 563 -7T531 -3Q509 -2 493 13T477 51V82Q477
88 474 89T466 86Q395 -11 302 -11Z" />
<glyph unicode="&#xfc;" glyph-name="udieresis" horiz-adv-x="665" d="M208 622Q192 622 180 634T167 663Q167 680 179 692T208 704Q225 704 237 692T249 663Q249 646 237 634T208 622ZM374 622Q357 622 345 634T333 663Q333 680 345 692T374 704Q391 704 403
692T415 663Q415 646 403 634T374 622ZM302 -11Q222 -11 172 33T122 150V443Q122 453 113 451L66 448Q53 447 44 455T35 477Q35 490 44 498T65 505Q89 503 102 503T131 501Q154 501 169 486T185 447V150Q185 115 200 95T236 66T276 55T302 52Q351 52 395 83T474
171Q477 177 477 182V443Q477 453 468 451L421 448Q408 447 399 455T390 477Q390 490 399 498T420 505Q444 503 457 503T486 501Q509 501 524 486T540 447V54Q540 45 550 45Q561 46 572 48T593 51Q607 53 617 44T627 20Q627 6 617 -3T593 -11Q579 -9 563 -7T531
-3Q509 -2 493 13T477 51V82Q477 88 474 89T466 86Q395 -11 302 -11Z" />
<glyph unicode="&#xfd;" glyph-name="yacute" horiz-adv-x="624" d="M265 613Q259 619 259 628Q259 636 265 642L350 740Q359 750 372 750Q384 750 393 741Q401 733 401 720Q401 705 391 698L292 613Q286 607 279 607Q271 607 265 613ZM129 -252Q97 -252 70 -238T26
-199T10 -146Q10 -115 26 -97T68 -79Q89 -79 104 -94T119 -132Q119 -163 98 -171Q89 -174 95 -180Q110 -198 131 -198Q164 -198 192 -172T241 -100L278 -15Q280 -9 278 -3L82 444Q78 451 71 450L42 447Q31 446 22 454T12 476Q12 489 21 498T42 505Q71 503 90 502T126
501Q143 501 162 502T210 505Q222 507 231 498T240 476Q240 463 231 455T210 447Q197 449 183 450T154 452H152Q142 452 147 442L307 76Q310 70 313 70Q318 70 319 76L483 442Q484 444 484 447Q484 452 478 452Q448 452 416 447Q405 446 396 454T386 476Q386 489
395 498T416 505Q445 503 464 502T500 501Q517 501 536 502T584 505Q596 507 605 498T614 476Q614 463 605 455T584 447L561 449H559Q554 449 550 443L303 -108Q232 -252 129 -252Z" />
<glyph unicode="&#xfe;" glyph-name="thorn" horiz-adv-x="636" d="M69 -250Q56 -251 47 -243T38 -222Q38 -208 47 -200T69 -193L112 -196H114Q121 -196 121 -188V663Q121 671 114 671Q101 671 89 669T66 667Q55 667 47 675T38 696Q38 709 47 718T69 725Q101 722
119 721T153 719Q171 719 189 720T236 725Q248 727 257 718T267 696Q267 684 259 676T239 667Q229 667 217 668T193 671H191Q184 671 184 663V434Q184 428 187 427T194 430Q223 462 261 483T345 505Q405 505 450 482T524 422T567 338T582 247Q582 201 566 155T519
72T441 12T335 -11Q296 -11 260 5T195 49Q192 52 189 52Q184 52 184 44V-188Q184 -197 193 -196L236 -193Q249 -191 258 -199T267 -222Q267 -235 258 -243T236 -250Q204 -247 186 -246T153 -245Q134 -245 117 -246T69 -250ZM337 48Q387 48 427 74T491 146T515 248Q515
306 493 350T430 419T338 444Q247 444 188 363Q184 358 184 352V130Q184 125 187 119Q213 85 251 67T337 48Z" />
<glyph unicode="&#xff;" glyph-name="ydieresis" horiz-adv-x="624" d="M232 622Q216 622 204 634T191 663Q191 680 203 692T232 704Q249 704 261 692T273 663Q273 646 261 634T232 622ZM398 622Q381 622 369 634T357 663Q357 680 369 692T398 704Q415 704 427
692T439 663Q439 646 427 634T398 622ZM129 -252Q97 -252 70 -238T26 -199T10 -146Q10 -115 26 -97T68 -79Q89 -79 104 -94T119 -132Q119 -163 98 -171Q89 -174 95 -180Q110 -198 131 -198Q164 -198 192 -172T241 -100L278 -15Q280 -9 278 -3L82 444Q78 451 71
450L42 447Q31 446 22 454T12 476Q12 489 21 498T42 505Q71 503 90 502T125 500Q143 500 162 501T210 505Q222 507 231 498T240 476Q240 463 231 455T210 447Q197 449 183 450T154 452H152Q142 452 147 442L307 76Q310 70 313 70Q318 70 319 76L483 442Q484 444
484 447Q484 452 478 452Q448 452 416 447Q405 446 396 454T386 476Q386 489 395 498T416 505Q445 503 464 502T499 500Q517 500 536 501T584 505Q596 507 605 498T614 476Q614 463 605 455T584 447L561 449H559Q554 449 550 443L303 -108Q232 -252 129 -252Z"
/>
<glyph unicode="&#x2013;" glyph-name="endash" horiz-adv-x="512" d="M39 295Q29 295 22 302T14 320Q14 331 21 338T39 345H473Q484 345 491 338T498 320Q498 310 491 303T473 295H39Z" />
<glyph unicode="&#x2014;" glyph-name="emdash" horiz-adv-x="988" d="M25 295Q15 295 8 302T0 320Q0 331 7 338T25 345H963Q974 345 981 338T988 320Q988 310 981 303T963 295H25Z" />
<glyph unicode="&#x2018;" glyph-name="quoteleft" horiz-adv-x="222" d="M124 584Q93 584 74 613T54 685Q54 729 79 777T160 860Q164 862 166 862Q179 862 179 849Q179 844 173 839Q138 814 119 786T100 735Q100 706 133 700Q159 696 170 680T182 643Q182 621
168 603T124 584Z" />
<glyph unicode="&#x2019;" glyph-name="quoteright" horiz-adv-x="222" d="M63 592Q59 590 57 590Q52 590 48 594T43 604Q43 609 48 613Q84 638 103 667T123 718Q123 748 90 752Q65 756 53 773T40 810Q40 832 55 850T98 868Q130 868 149 839T168 767Q168 724 144
675T63 592Z" />
<glyph unicode="&#x201a;" glyph-name="quotesinglbase" horiz-adv-x="222" d="M63 -104Q59 -106 57 -106Q52 -106 48 -102T43 -92Q43 -87 48 -83Q84 -58 103 -29T123 22Q123 36 115 45T90 57Q65 61 53 78T40 114Q40 136 55 154T98 172Q130 172 149 143T168 71Q168
28 144 -21T63 -104Z" />
<glyph unicode="&#x201c;" glyph-name="quotedblleft" horiz-adv-x="385" d="M287 584Q256 584 237 613T217 685Q217 729 242 777T323 860Q327 862 329 862Q342 862 342 849Q342 844 336 839Q301 814 282 786T263 735Q263 706 296 700Q322 696 333 680T345 643Q345
621 331 603T287 584ZM123 584Q91 584 72 613T53 685Q53 729 77 777T158 860Q162 862 165 862Q170 862 174 858T178 849Q178 844 172 839Q137 814 118 786T99 735Q99 722 107 712T131 700Q157 696 169 680T181 643Q181 621 167 603T123 584Z" />
<glyph unicode="&#x201d;" glyph-name="quotedblright" horiz-adv-x="386" d="M227 592Q223 590 221 590Q216 590 212 594T208 603Q208 609 213 613Q248 639 267 667T286 717Q286 748 254 752Q229 756 217 773T204 809Q204 832 219 850T262 868Q294 868 313 839T333
767Q333 723 308 675T227 592ZM63 592Q59 590 57 590Q52 590 48 594T43 604Q43 609 48 613Q84 638 103 667T123 718Q123 748 90 752Q65 756 53 773T40 810Q40 832 55 850T98 868Q130 868 149 839T168 767Q168 724 144 675T63 592Z" />
<glyph unicode="&#x201e;" glyph-name="quotedblbase" horiz-adv-x="386" d="M227 -104Q223 -106 221 -106Q216 -106 212 -102T208 -93Q208 -87 213 -83Q248 -58 267 -29T287 22Q287 36 279 45T254 57Q229 61 217 77T204 113Q204 136 219 154T262 172Q294 172
313 143T333 71Q333 27 308 -21T227 -104ZM63 -104Q59 -106 57 -106Q52 -106 48 -102T43 -92Q43 -87 48 -83Q84 -58 103 -29T123 22Q123 36 115 45T90 57Q65 61 53 78T40 114Q40 136 55 154T98 172Q130 172 149 143T168 71Q168 28 144 -21T63 -104Z" />
<glyph unicode="&#x2022;" glyph-name="bullet" horiz-adv-x="264" d="M132 279Q100 279 77 301T54 357Q54 389 77 412T132 435Q164 435 187 412T210 357Q210 324 187 302T132 279Z" />
<glyph unicode="&#x2039;" glyph-name="guilsinglleft" horiz-adv-x="276" d="M238 144Q231 139 223 139Q213 139 205 147L50 316Q34 335 34 357Q34 378 50 397L205 566Q213 574 223 574Q231 574 238 569Q247 563 247 552Q247 545 243 540L122 363Q118 357 122
351L243 173Q247 168 247 161Q247 150 238 144Z" />
<glyph unicode="&#x203a;" glyph-name="guilsinglright" horiz-adv-x="275" d="M37 144Q29 150 29 160Q29 168 33 173L154 351Q158 357 154 363L33 540Q29 545 29 553Q29 563 37 569Q45 574 52 574Q62 574 70 566L226 397Q241 379 241 357Q241 334 226 316L70
147Q62 139 52 139Q45 139 37 144Z" />
</font>
</defs>
</svg>
